<?xml version="1.0" encoding="utf-8"?>
<!-- Generator: Adobe Illustrator 15.0.0, SVG Export Plug-In . SVG Version: 6.00 Build 0)  -->
<!DOCTYPE svg PUBLIC "-//W3C//DTD SVG 1.1//EN" "http://www.w3.org/Graphics/SVG/1.1/DTD/svg11.dtd">
<svg version="1.1" id="Layer_1" xmlns="http://www.w3.org/2000/svg" xmlns:xlink="http://www.w3.org/1999/xlink" x="0px" y="0px"
	 width="432px" height="432px" viewBox="0 0 432 432" enable-background="new 0 0 432 432" xml:space="preserve">
<path fill-rule="evenodd" clip-rule="evenodd" fill="#959595" d="M205.724,270.708c-0.97-0.108-2.194,2.957-2.909,0.727
	c-1.975-0.52,0.521,3.429-1.454,2.909c-2.405-0.505-1.675-4.143-5.09-3.636c0.482-3.875-0.424-6.363-2.909-7.272
	c-1.502,1.893-1.541,5.246-1.454,8.727c-1.696,0-3.394,0-5.09,0c-1.543-5.877-1.386-12.42-2.182-18.905
	c-0.992-8.09-3.94-15.338-2.908-25.451c1.851-18.133,0.505-42.201,1.454-62.534c1.215-2.738-3.383-3.313-1.454-4.363
	c17.101-0.593,32.74-2.647,48.719-4.363c2.754,11.48,7.473,24.08,10.907,36.358c1.165,4.163,1.543,8.564,2.909,12.361
	c0.689,1.919,1.841,4.836,2.907,6.545c0.677,1.082,2.379,1.732,2.909,2.908c0.682,1.509-0.92,4.373,1.454,5.089
	c-1.375,2.378-1.595,3.869-2.182,7.271c-0.738,4.289-0.251,6.494,2.182,10.181c-0.148,2.275,0.491,5.337-0.727,6.545
	c0.092,3.059,2.815,3.484,2.908,6.545c-11.302,0.579-24.867,3.081-37.084,4.363c-5.847,0.611-13.961-0.934-15.998,3.634
	c0.501,3.378,3.35,4.408,5.091,6.545C204.723,267.093,206.069,267.488,205.724,270.708z"/>
</svg>
