<?xml version="1.0" encoding="utf-8"?>
<!-- Generator: Adobe Illustrator 15.0.0, SVG Export Plug-In . SVG Version: 6.00 Build 0)  -->
<!DOCTYPE svg PUBLIC "-//W3C//DTD SVG 1.1//EN" "http://www.w3.org/Graphics/SVG/1.1/DTD/svg11.dtd">
<svg version="1.1" id="Layer_1" xmlns="http://www.w3.org/2000/svg" xmlns:xlink="http://www.w3.org/1999/xlink" x="0px" y="0px"
	 width="432px" height="432px" viewBox="0 0 432 432" enable-background="new 0 0 432 432" xml:space="preserve">
<path fill-rule="evenodd" clip-rule="evenodd" fill="#959595" d="M152.362,244.812c0.224-1.714,2.525-1.353,2.181-3.636
	c0.713-0.71,3.439,0.925,4.363,0c0.08-0.079,1.205-3.43,1.455,0c1.09-0.629,0.003-3.851,0.727-4.363
	c0.411-0.291,2.177,0.7,2.182,0.728c-0.156-0.984-2.103-2.194-2.909-2.909c-0.894-0.792-1.251-1.849-2.909-2.181
	c0.971-3.159,0.1-4.854,0.727-7.272c0.232-1.836,3.308,0.984,3.636,0.728c0.439-0.343-1.46-1.478-1.454-1.454
	c-0.222-0.943,3.181-5.091,3.636-6.545c0.647-2.069-0.089-4.523,0.727-5.816c2.592-4.106,5.924-2.651,8.727-7.271
	c-0.063-2.1-1.468-2.806-3.636-4.363c-0.151-7.479-5.812-13.111-0.727-18.178c-0.192-8.023,0.245-16.531,0.727-21.815
	c3.317-1.125,3.076,0.573,6.544,0.728c1.16,0.537-0.166,3.559,2.182,2.908c1.939,1.877,2.289-1.462,3.636-2.908
	c1.064-1.144,1.461-1.974,2.181-5.817c0.68-3.633,1.494-9.822,2.182-13.815c10.108,1.723,20.042,4.168,30.541,5.816
	c1.182,0.186,2.455-0.191,3.636,0c17.282,2.818,39.025,6.059,58.899,8.727c-6.182,44.478-11.075,90.24-17.452,134.522
	c-13.624-1.403-26.125-3.931-39.993-5.09c-0.605-0.298-0.672-1.76,0-1.455c-1.2-0.544-6.742-0.553-5.09-3.636
	c-1.492,1.703-3.253-0.557-5.09-1.454c-1.545-0.753-4.523-1.597-5.09-2.182c-0.146-0.151,1.063-1.251,0.727-1.454
	c-0.715-0.432-0.576,0.697-0.727,0.727c-0.9,0.18-0.37-0.598-0.728-0.727c-3.526-1.26-7.119-3.335-10.18-5.091
	c-2.599-1.489-5.102-2.884-7.271-5.088c-0.39-0.396-1.634,0.254-1.455-0.728c-0.035,0.19,1.239-0.413,0.727-0.728
	c0.013,0.008-2.939,1.394-3.636,0c-0.046-0.091,0.973-1.353,0.727-1.454c-0.664-0.276-1.749,0.756-3.635,0
	c-1.365-0.548-2.342-2.145-3.636-2.908c-0.779-0.46-1.474-0.318-2.181-0.728c-2.349-1.36-6.586-3.63-9.453-5.818
	c-0.452-0.344-1.625,0.207-1.455-0.727c-0.034,0.189,1.239-0.411,0.728-0.727c-0.708-0.438-0.581,0.697-0.728,0.727
	c-0.649,0.13-4.549-2.937-5.817-3.636C156.769,247.27,154.292,246.642,152.362,244.812z"/>
</svg>
