<?xml version="1.0" encoding="utf-8"?>
<!-- Generator: Adobe Illustrator 15.0.0, SVG Export Plug-In . SVG Version: 6.00 Build 0)  -->
<!DOCTYPE svg PUBLIC "-//W3C//DTD SVG 1.1//EN" "http://www.w3.org/Graphics/SVG/1.1/DTD/svg11.dtd">
<svg version="1.1" id="Layer_1" xmlns="http://www.w3.org/2000/svg" xmlns:xlink="http://www.w3.org/1999/xlink" x="0px" y="0px"
	 width="432px" height="432px" viewBox="0 0 432 432" enable-background="new 0 0 432 432" xml:space="preserve">
<path fill-rule="evenodd" clip-rule="evenodd" fill="#959595" d="M255.007,196.91c-0.384,3.05,1.271,4.062,1.454,6.544
	c-0.558,2.351-2.012,3.806-4.363,4.362c0.639,1.286,2.306,2.123,0.728,3.637c-1.445,1.211-0.925-0.066-2.909,0
	c0.204,2.121-0.174,2.499-1.454,1.453c-0.636,3.426-0.599,7.154,0,8.727c-0.785,2.365-4.358,1.943-4.362,5.09
	c-1.445,1.211-0.925-0.065-2.908,0c0.387,2.037,1.067,3.78,1.454,5.817c-2.573-0.392-3.188,1.177-4.363,2.182
	c0.31,1.419,2.078-1.189,1.454,2.182c-0.809,1.371-1.021,3.341-2.908,3.636c-0.464,1.586,2.061,2.313-0.728,2.181
	c-0.713,1.272,1.44,1.847,1.455,2.182c0.016,0.381-1.389,1.661-1.455,1.455c0.944,2.966,2.536,1.559,2.909,3.636
	c0.146,0.816,0.724,2.14,0.727,2.182c0.14,1.66-1.249,0.987-1.454,2.182c-0.092,0.534,1.278,1.726,0.728,2.908
	c-9.904-0.417-19.759,1.695-30.541,1.454c-1.492-0.033-3.564-0.794-5.09-0.727c-1.514,0.065-2.783,1.229-4.362,1.454
	c-5.615,0.797-11.429-0.781-16.725,0c0-4.121,0-8.242,0-12.362c-0.845,0.118-1.294-0.16-1.454-0.727
	c-1.297-0.829-2.623,0.003-3.637,0c-0.063-0.001,0.082-1.374,0-1.455c-0.838-0.839-0.974,2.238-2.908,1.455
	c-2.454-15.188-0.042-32.439-1.454-47.992c-0.704-7.763-3.639-14.87-3.637-21.815c23.847-0.152,49.454-1.305,73.443-2.908
	c4.475-0.299,11.258-3.107,12.361,2.908c0.053,2.18-2.139,3.69-3.636,2.182c1.962,1.789-2.689,4.029-0.728,5.817
	c3.926,2.72,6.398-1.021,12.362,0c0.831,1.462-1.304,1.077-1.454,1.454c-0.255,0.635,0.597,1.665,0.727,1.455
	c-1.029,1.674-1.822,1.553-3.636,2.908c1.142,3.333-0.26,3.391-2.182,5.09L255.007,196.91z"/>
</svg>
