<?xml version="1.0" encoding="utf-8"?>
<!-- Generator: Adobe Illustrator 15.0.0, SVG Export Plug-In . SVG Version: 6.00 Build 0)  -->
<!DOCTYPE svg PUBLIC "-//W3C//DTD SVG 1.1//EN" "http://www.w3.org/Graphics/SVG/1.1/DTD/svg11.dtd">
<svg version="1.1" id="Layer_1" xmlns="http://www.w3.org/2000/svg" xmlns:xlink="http://www.w3.org/1999/xlink" x="0px" y="0px"
	 width="432px" height="432px" viewBox="0 0 432 432" enable-background="new 0 0 432 432" xml:space="preserve">
<path fill-rule="evenodd" clip-rule="evenodd" fill="#959595" d="M156.29,197.837c2.896,0.74,2.749,4.522,5.817,5.09
	c0.091-0.891,0.125-2.92-0.728-6.544c-0.48-2.045-2.009-4.892-2.181-7.999c1.476-0.417,2.213-0.115,3.635,0
	c0.662,0.054,1.104,0.903,2.182,0.728c0.592-0.096,3.196-0.675,4.363,1.454c2.222,0.525,2.649-0.743,4.363-0.727
	c1.089,1.093,1.301,3.062,2.909,3.636c1.22-4.224-5.312-3.43-3.636-5.818c-3.261,2.68-6.282-2.168-8.726,0
	c-2.415-0.736-2.277-4.024-5.817-3.636c-2.177,0.732-1.435,4.382-2.182,6.544c-1.409-0.968-3.063-2.797-4.363-4.363
	c-1.142-1.375-3.294-2.389-2.181-4.363c0.79,0.18,0.493,1.445,1.454,1.454c-0.331-3.287-0.849-6.324-2.181-9.453
	c-0.37-0.868-0.984-0.84-1.455-1.455c-0.371-0.485-1.909-2.733-2.182-3.636c-0.186-0.613,0.283-1.612,0-2.182
	c-1.104-2.225-3.315-4.38-3.636-6.544c-0.145-0.98,1.353-2.86,1.454-5.09c0.1-2.188-0.945-3.934-0.727-5.09
	c0.744-3.946,3.658-5.03,2.909-10.908c-0.338-2.655-1.606-6.059-2.909-8.726c-0.752-1.541-2.757-3.229-2.908-5.09
	c-0.399-4.918,2.552-9.438,7.271-10.907c-2.067-1.269,1.132-2.464,1.454-3.636c0.27-0.982-0.505-3.053,0-4.363
	c0.755-1.958,2.865-3.004,3.636-5.09c1.53-4.143-0.865-9.978,1.454-14.543c23.812,5.76,45.886,13.256,70.535,18.179
	c-1.906,12.279-5.234,23.983-8,35.63c-2.779,11.705-5.711,23.292-8.726,34.904c14.515,22.124,30.366,43.373,45.083,65.443
	c0.875,1.312,1.287,3.033,2.182,4.362c0.738,1.097,2.182,1.854,2.908,2.909c0.897,1.301,1.286,3.032,2.182,4.362
	c0.736,1.094,2.191,1.854,2.909,2.908c0.878,1.29,1.317,3.17,2.182,4.363c0.793,1.096,2.165,1.836,2.908,2.908
	c0.876,1.265,1.395,3.145,2.182,4.363c0.308,0.477,1.184,1.02,1.454,1.455c4.566,7.344,10.102,16.05,15.998,23.268
	c-2.289,4.475,4.124,9.092,2.182,13.09c0.686,2.222,3.538,2.278,3.635,5.09c-0.625,2.651-3.768,2.534-5.09,3.636
	c-1.15,0.959-2.838,2.747-3.635,4.362c-0.94,1.902-0.276,5.809-1.455,7.999c-0.229,0.425-1.094,0.911-1.454,1.454
	c-0.659,0.992-1.478,2.205-3.636,2.908c0.234,3.325,0.747,4.037-0.728,6.545c-0.094,2.519,3.199,1.648,3.636,3.636
	c0.834,3.015-1.529,2.834-1.454,5.091c-14.942-1.297-34.565-3.557-51.628-5.091c-0.748-1.015,0.72-2.954,0.727-2.908
	c-0.401-2.38-2.018-0.72-2.181-2.182c-0.23-2.058,1.133-5.433,0.728-8.726c-1.113-9.029-8.568-12.271-12.362-19.633
	c-2.06-0.759-3.03-0.758-5.09,0c0.357-3.266-0.368-5.449-0.727-7.999c-5.66-1.629-8.98-1.622-12.361-5.091
	c-0.932-0.955-0.81-2.5-1.455-3.635c-1.971-3.47-4.665-5.971-9.453-5.817c-2.014-2.98-6.254-3.179-10.18-3.636
	c-1.513-0.176-1.942-3.693-4.363-3.636c2.232-3.101,1.541-9.124,3.636-12.362c-0.069-2.839-2.938-2.878-4.363-4.362
	c0.312-1.385,1.566-1.827,1.454-3.636c-0.255-2.283-2.506-3.307-3.635-5.09c-0.33-0.52,0.265-1.621,0-2.182
	c-0.22-0.463-2.38-1.682-2.909-2.908c-1.01-2.345-0.493-4.853-1.455-7.271c-0.329-0.828-1.699-1.176-2.182-2.182
	c-0.526-1.1-0.333-2.221-0.727-2.909c-1.862-3.254-3.309-5.062-2.181-10.907c2.619,0.438,2.143-2.219,4.363-2.182
	c0.225-2.648-0.115-4.732-0.727-6.544c-0.306-1.633-3.858-0.02-4.363-1.454c-1.091-2.346-3.111-3.736-3.636-6.545
	c-0.271-1.449,1.316-2.134,1.454-3.635c0.135-1.469-1.842-4.486-0.727-5.09"/>
</svg>
