<?xml version="1.0" encoding="utf-8"?>
<!-- Generator: Adobe Illustrator 15.0.0, SVG Export Plug-In . SVG Version: 6.00 Build 0)  -->
<!DOCTYPE svg PUBLIC "-//W3C//DTD SVG 1.1//EN" "http://www.w3.org/Graphics/SVG/1.1/DTD/svg11.dtd">
<svg version="1.1" id="Layer_1" xmlns="http://www.w3.org/2000/svg" xmlns:xlink="http://www.w3.org/1999/xlink" x="0px" y="0px"
	 width="432px" height="432px" viewBox="0 0 432 432" enable-background="new 0 0 432 432" xml:space="preserve">
<path fill-rule="evenodd" clip-rule="evenodd" fill="#959595" d="M201.141,206.853c9.416-1.976,18.508-4.276,27.633-6.544
	c1.227,5.074,3.36,9.242,3.636,15.27c-4.431-0.61-6.194,5.228-9.454,1.454c-0.064,1.984,1.212,1.464,0,2.908
	c-3.617,0.746-6.758,1.01-9.452,2.908c-0.753,0.532-0.792,1.625-1.454,2.182c-0.431,0.363-1.733-0.344-2.182,0
	c-0.629,0.483-0.188,1.644-0.728,2.182c-0.481,0.482-1.691,0.257-2.182,0.728c-0.926,0.891-1.464,2.589-2.908,2.909
	c-0.845,0.118-1.294-0.161-1.454-0.728c-0.64-2.336,2.396-0.996,2.182-2.909C203.54,220.451,201.467,214.525,201.141,206.853z"/>
</svg>
