<?xml version="1.0" encoding="utf-8"?>
<!-- Generator: Adobe Illustrator 15.0.0, SVG Export Plug-In . SVG Version: 6.00 Build 0)  -->
<!DOCTYPE svg PUBLIC "-//W3C//DTD SVG 1.1//EN" "http://www.w3.org/Graphics/SVG/1.1/DTD/svg11.dtd">
<svg version="1.1" id="Layer_1" xmlns="http://www.w3.org/2000/svg" xmlns:xlink="http://www.w3.org/1999/xlink" x="0px" y="0px"
	 width="432px" height="432px" viewBox="0 0 432 432" enable-background="new 0 0 432 432" xml:space="preserve">
<path fill-rule="evenodd" clip-rule="evenodd" fill="#959595" d="M213.78,231.928c-0.551-10.663-7.749-21.263-6.543-31.994
	c2.054,0.601,1.883-1.025,3.635-0.728c0.417,2.052-1.426,3.214-1.454,5.09c-0.051,3.417,2.666,6.441,5.09,8
	c0.366,2.768,0.985,4.159,2.909,6.544c1.799,2.23,1.929,3.835,5.817,3.635c-0.232,1.708-1.149,2.73-0.728,5.091
	c0.131,1.171,3.456-1.185,2.909,2.182C221.146,230.082,218.178,231.72,213.78,231.928z"/>
</svg>
