<?xml version="1.0" encoding="utf-8"?>
<!-- Generator: Adobe Illustrator 15.0.0, SVG Export Plug-In . SVG Version: 6.00 Build 0)  -->
<!DOCTYPE svg PUBLIC "-//W3C//DTD SVG 1.1//EN" "http://www.w3.org/Graphics/SVG/1.1/DTD/svg11.dtd">
<svg version="1.1" id="Layer_1" xmlns="http://www.w3.org/2000/svg" xmlns:xlink="http://www.w3.org/1999/xlink" x="0px" y="0px"
	 width="432px" height="432px" viewBox="0 0 432 432" enable-background="new 0 0 432 432" xml:space="preserve">
<path fill-rule="evenodd" clip-rule="evenodd" fill="#959595" d="M238.796,219.064c-0.643-6.16,2.44-13.972-0.363-21.087
	c-2.603-1.274-3.157-4.599-5.09-6.544c-1.804-0.944-3.528,1.622-3.636,0c-3.858-1.476-5.11-5.557-9.453-6.545
	c1.267-3.681-2.295-3.367-4.363-5.091c-1.152-0.961-1.111-2.793-2.182-3.636c-0.509-0.401-5.911-2.669-7.271-2.908
	c-1.581-0.277-4.445-0.431-5.817,0c-0.967,0.303-1.112,1.05-2.182,2.181c0.073-0.076-2.229,2.016-2.182,1.455
	c-0.033,0.405,1.696,1.211,2.182,0.727c-1.103,1.1-2.281,0.767-3.636,1.455c-2.238,1.138-3.298,3.013-4.362,4.362
	c-1.084,0.926-1.572-1.426-1.454-1.454c-1.377,0.321-1.474,2.151-2.909,2.909c-1.935,1.021-4.049-0.515-5.09,1.454
	c-1.107-3.016-2.094-6.146-5.818-6.545c0.729-1.002,1.199,0.311,2.182-1.454c-1.732-1.417-3.765-2.537-6.543-2.909
	c0.892-1.289,2.255-2.106,2.908-3.636c-0.101-2.271-2.314,1.313-2.908,1.455c-1.291,0.308-3.686-2.12-3.637,1.454
	c-2.482-0.184-3.493-1.838-6.544-1.454c3.835-3.488-3.678-3.811-5.817-4.363c-1.903,2.944-6.531,3.164-10.18,4.363
	c0.033-1.195-1.161-2.431-1.455-5.091c-2.201-0.518-0.671,2.447-1.454,2.909c-0.254,0.149-0.923-1.417-1.454-1.455
	c-1.556-0.104-0.614,2.245-2.182,4.363h-1.455c-0.527-1.225-3.854-3.341-1.453-5.09c-0.938-2.698-4.929-2.343-5.09-5.817
	c0.993-4.49,5.744-2.464,8.725-2.907c13.306-1.978,29.77-3.57,43.63-5.091c0.956,1.952,1.952,3.864,2.908,5.818
	c18.938-0.008,38.159-3.483,55.264-2.909c-0.109,1.806,0.376,3.018,1.454,3.634c6.256,0.361,0.565-8.672,2.909-10.905
	c2.079-0.979,5.78,1.706,10.18,0.727c0.821,2.193-0.386,5.445,2.908,6.545c-0.022,4.58,2.576,8.375,4.363,12.36
	c3.874,8.644,9.079,17.587,15.997,23.997c-0.316,1.079-0.93-0.288-2.182,0c-0.6,3.413,1.35,6.466,2.909,9.451
	c1.378,2.638,3.447,5.519,5.09,7.999c1.251,1.891,1.951,3.332,3.637,5.091c2.313,2.415,3.425,8.224,6.543,10.908
	c0.063,1.031,0.121,2.058-0.727,2.181c3.747,1.634,4.625,2.801,6.544,8.725c1.329,4.102,2.799,17.479,1.455,23.271
	c-0.411,1.77-1.963,3.424-2.182,5.09c-0.226,1.709,0.885,3.494,0.727,5.091c-0.176,1.794-2.033,2.604-1.454,4.362
	c-4.363-0.727-5.32,5.009-9.453,2.18l-0.362-0.362l-0.364,0.362c-0.097-2.327-1.649-3.198-4.363-2.906
	c-1.82-2.421-3.81-4.713-5.817-7.272c-1.547-1.974-1.602-3.529-4.363-4.362c-2.113-0.64-4.01,0.489-5.816-0.728
	c-1.501-2.621-3.225-5.018-3.636-8.727c-0.203-1.493-1.942-1.45-2.908-2.182c0.188-2.72,1.685-4.131,2.908-5.817
	c-3.491-0.581-3.019,2.799-4.363,4.363c-2.437-0.983-2.877-6.93-1.454-9.453c-0.907-1.271-2.979,1.861-5.09,0
	c-2.034,0.937,2.29,1.505,1.454,3.636c-5.191-1.108-6.925-5.68-8.726-10.179c-0.412-2.255-3.421-1.912-3.636-4.363
	c2.474,0.225,1.61-3.192,2.182-4.363c0.618-1.271,2.846-1.961,2.182-3.636c-0.937-3.957-3.511-1.538-6.908-3.636l-0.364,0.727
	c1.403,0.294,0.063,3.332,2.909,2.182c-0.564,0.647-0.782,1.642-0.728,2.909c-2.717,0.777-2.073-1.806-4.363-1.454
	c-0.601-2.055,1.025-1.885,0.728-3.637L238.796,219.064z"/>
</svg>
