<?xml version="1.0" encoding="utf-8"?>
<!-- Generator: Adobe Illustrator 15.0.0, SVG Export Plug-In . SVG Version: 6.00 Build 0)  -->
<!DOCTYPE svg PUBLIC "-//W3C//DTD SVG 1.1//EN" "http://www.w3.org/Graphics/SVG/1.1/DTD/svg11.dtd">
<svg version="1.1" id="Layer_1" xmlns="http://www.w3.org/2000/svg" xmlns:xlink="http://www.w3.org/1999/xlink" x="0px" y="0px"
	 width="432px" height="432px" viewBox="0 0 432 432" enable-background="new 0 0 432 432" xml:space="preserve">
<path fill-rule="evenodd" clip-rule="evenodd" fill="#959595" d="M199.713,267.256c-1.809-0.251-3.931,1.706-7.635,0.91
	c-0.939-2.568-2.559-5.799-4.363-8.727c-0.468-0.759-1.222-1.268-1.454-2.182c-0.511-2.015,0.434-5.507,0-7.999
	c-0.354-2.039-2.059-3.714-2.182-5.09c-0.372-4.134,0.471-8.758,2.909-11.635c-1.287-1.828-1.172-4.574-2.182-6.543
	c-0.435-0.849-1.655-0.774-2.182-1.454c-0.528-0.685-2.296-4.943-2.908-6.545c-2.342-6.125-3.881-14.739-5.817-21.815
	c-2.783-10.169-5.808-19.274-8.12-27.995c15.604-2.334,31.956-2.947,46.659-6.181c-1.054,2.099-1.987,4.315-3.636,5.817
	c0.442,4.162,5.979,3.23,7.271,6.545c2.237-0.51,1.397-0.51,3.635,0c2.131,3.268,4.887,9.147,7.999,11.634
	c0.62,0.495,1.599,0.245,2.182,0.728c1.246,1.029-1.09,1.503,2.182,0.727c-0.32,1.373,2.485,1.387,2.182,2.908
	c0.002-0.009-1.161,0.188-0.728,0.728c-0.025-0.031,1.02-0.489,1.455,0c1.479,1.665,2.659,2.048,5.816,3.636
	c1.63,5.399,6.062,7.997,10.908,10.181c0.336,3.298,2.959,4.312,2.908,7.998c0.584,1.839,2.993,1.855,4.362,2.908
	c-1.412,1.306,0.431,1.222,0,0.729c2.389,2.74,2.456,4.98,3.636,8.726c2.361-0.422,3.384,0.494,5.091,0.728
	c-0.413,2.775-2.467,4.701-4.363,2.182c-0.422,2.359,0.495,3.382,0.727,5.088c-3.776-1.295-2.488,7.512-1.454,8.727
	c-1.643,0.43-1.845,1.23-2.908,1.454c-0.248,0.053-1.538-1.125-2.182,0c0.613,1.568,3.75,0.613,4.362,2.182
	c-0.088,2.694-1.058,1.83-2.908,1.454c1.084,5.841-0.642,7.433,1.454,11.636c-3.311-0.083-6.772-0.014-7.998-2.182
	c-1.06,1.364-2.395,2.452-3.636,3.636c1.099,1.905,2.396,6.345,0.728,8.727c-2.762,0.093-1.509-3.825-3.637-4.363
	C230.635,265.274,215.262,266.807,199.713,267.256z"/>
</svg>
