<?xml version="1.0" encoding="utf-8"?>
<!-- Generator: Adobe Illustrator 15.0.0, SVG Export Plug-In . SVG Version: 6.00 Build 0)  -->
<!DOCTYPE svg PUBLIC "-//W3C//DTD SVG 1.1//EN" "http://www.w3.org/Graphics/SVG/1.1/DTD/svg11.dtd">
<svg version="1.1" id="Layer_1" xmlns="http://www.w3.org/2000/svg" xmlns:xlink="http://www.w3.org/1999/xlink" x="0px" y="0px"
	 width="432px" height="432px" viewBox="0 0 432 432" enable-background="new 0 0 432 432" xml:space="preserve">
<path fill-rule="evenodd" clip-rule="evenodd" fill="#959595" d="M161.027,288.941c1.139-7.656,2.822-13.084,4.166-19.733
	c1.395-6.898,2.22-13.958,3.623-20.526c0.479-2.242,2.144-3.976,2.898-5.865c0.732-1.834,0.583-4.343,1.008-6.169
	c-0.685-1.507-3.503-1.083-3.393-3.394c-0.124-7.456,4.849-8.472,8.906-11.697c-1.349-2.284,0.588-3.269,1.516-4.785
	c0.828-1.353,1.994-4.482,2.909-5.817c2.09-3.05,4.675-4.118,4.605-6.787c-0.05-1.899-1.812-3.508-2.909-5.09
	c-1.053-1.516-1.618-1.737-2.499-3.913l0.725-1.466c-0.759-1.782,0.063-2.057-0.65-4.801c-0.216-0.833-0.295-3.342-0.243-4.121
	c-0.008,0.124,0.682-0.748,0.893-1.341c0.765-2.162-0.061-5.568,0.319-7.626c1.414-7.641,4.525-15.054,5.575-23.753
	c0.647-5.361,2.503-8.429,2.909-12.362c0.119-1.152,0.633-3.452,0.727-3.636c0.206-0.402,0.988-4.47,0.969-4.363
	c0.676-3.847,0.353-3.815,1.682-6.303l13.346,2.909c-0.914,8.323-2.148,14.575-3.878,22.058c1.708,3.133,3.256,5.422,3.772,9.658
	c0.164,1.348-0.629,1.729-0.729,3.005c-0.119,1.501,0.841,2.157,1.459,3.004c0.493,0.676,0.251,1.66,0.73,2.253
	c0.979,1.217,2.085,1.742,2.918,3.004c1.283,1.943,2.644,4.766,3.648,6.76c0.251,0.498,1.55,1.785,1.459,2.254
	c-0.365,1.876-0.395,0.74,0.729,2.253c0.422,0.568,0.251,1.698,0.729,2.253c1.016,1.178,3.701,0.372,1.766,2.398
	c0.983,1.491,4.788-1.132,4.801,1.357c-1.64,6.19-5.676,9.164-4.074,16.579c-0.97,2.018-1.908,1.153-2.919,3.004
	c0.224-0.411-0.231,1.552-0.231,1.843c0,1.478-0.716,1.667,0.242,3.878c3.031,1.353,3.6,1.698,6.06,1.212
	c1.788-0.352,2.044-2.915,4.847-2.424c2.026,2.945,0.547,6.577,1.697,10.423c0.759,2.531,2.395,3.355,2.666,5.574
	c0.604,2.696-1.16,3.951,0.484,5.574c7.229,0.811,4.798,5.843,6.061,11.878c1.957-0.723,2.826-1.203,5.09-1.212
	c1.623-0.007,2.495,0.636,3.879,0.484c1.374-0.15,3.519-1.745,5.09-1.697c3.123,0.096,5.926,0.993,8.968,1.939
	c3.507,0.355,1.845-3.984,5.817-3.15c2.189,0.749,0.115,5.451,3.15,5.332l-8.786,59.081L161.027,288.941z"/>
</svg>
