<?xml version="1.0" encoding="utf-8"?>
<!-- Generator: Adobe Illustrator 15.0.0, SVG Export Plug-In . SVG Version: 6.00 Build 0)  -->
<!DOCTYPE svg PUBLIC "-//W3C//DTD SVG 1.1//EN" "http://www.w3.org/Graphics/SVG/1.1/DTD/svg11.dtd">
<svg version="1.1" id="Layer_1" xmlns="http://www.w3.org/2000/svg" xmlns:xlink="http://www.w3.org/1999/xlink" x="0px" y="0px"
	 width="432px" height="432px" viewBox="0 0 432 432" enable-background="new 0 0 432 432" xml:space="preserve">
<path fill-rule="evenodd" clip-rule="evenodd" fill="#959595" d="M245.91,270.281c-3.548,0.089-5.499,1.773-7.271,3.637
	c-0.083,2.697,3.377,4.258,1.454,6.544c-4.874-2.599-12.207-4.685-13.816,2.182c-1.901,0.079-4.399-2.543-5.09-4.363
	c-0.374-0.987,0.766-2.167,0.728-3.636c-0.071-2.728-2.627-4.32-1.454-6.544c-2.876-0.81-3.969-4.18-6.544-5.817
	c-0.405-0.257-1.875,0.349-2.182,0c-0.191-0.217,0.229-1.303,0-1.454c-0.726-0.478-2.544-0.16-3.637-0.728
	c-0.317-0.164-0.463-1.336-0.727-1.454c-4.442-2.002-5.488-5.534-2.182-10.907c0.801-1.301,0.524-4.118,1.454-7.271
	c-1.269-1.277-3.704-2.967-5.817-2.908c-1.814,0.049-2.605,1.647-4.362,1.453c-1.043-2.443-0.702-5.52-2.182-7.998
	c-1.528-2.559-3.696-2.586-5.817-4.362c-0.594-0.498-0.881-1.624-1.454-2.182c-0.746-0.729-4.419-3.267-5.09-4.363
	c-0.741-1.21-0.94-4.15-1.454-5.817c-0.61-1.977-1.491-3.25-1.454-5.09c0.075-3.836,3.113-2.775,1.454-7.999
	c0.766-2.143,3.289-2.528,5.09-3.636c-0.68-4.316,1.985-5.286,2.908-7.999c-0.384-4.573-4.564-4.579-2.908-9.453
	c4.316-1.017,7.938-2.726,11.635-4.363c0.748-5.367,4.526-7.545,3.635-12.362c-0.453-2.453-1.711-3.178-3.635-4.363
	c-1.447-0.89-1.34-2.676-2.909-4.363c-1.249-1.341-3.069,0.004-2.182-2.182c16.966-0.001,31.917-2.017,47.992-2.908
	c-0.739,3.741,0.677,5.478,2.181,7.999c0.263,0.44,1.352,1.193,1.455,1.454c0.244,0.609-0.291,1.597,0,2.181
	c1.124,2.255,3.033,4.711,3.636,7.272c0.768,3.258,0.347,7.651,0.728,11.634c1.045,10.929,2.717,23.459,3.636,33.449
	c0.265,2.877,0.835,6.188,0.727,8.726c-0.08,1.867-1.075,2.071-1.454,3.636c-0.209,0.867,0.668,0.43,0.728,0.728
	c0.088,0.44-0.845,1.755-0.728,2.908c0.256,2.544,2.997,5.021,2.909,8.726c-0.035,1.423-0.696,1.719-1.455,3.636
	c-1.058,2.677-1.035,3.11-2.181,5.091c-0.665,1.146-1.852,3.899-3.637,4.362c1.177,2.829-0.453,5.169-0.727,7.999
	c-0.092,0.949,0.834,2.362,0.727,3.636C246.481,264.855,244.125,267.012,245.91,270.281z"/>
</svg>
