<?xml version="1.0" encoding="utf-8"?>
<!-- Generator: Adobe Illustrator 15.0.0, SVG Export Plug-In . SVG Version: 6.00 Build 0)  -->
<!DOCTYPE svg PUBLIC "-//W3C//DTD SVG 1.1//EN" "http://www.w3.org/Graphics/SVG/1.1/DTD/svg11.dtd">
<svg version="1.1" id="Layer_1" xmlns="http://www.w3.org/2000/svg" xmlns:xlink="http://www.w3.org/1999/xlink" x="0px" y="0px"
	 width="432px" height="432px" viewBox="0 0 432 432" enable-background="new 0 0 432 432" xml:space="preserve">
<path fill-rule="evenodd" clip-rule="evenodd" fill="#959595" d="M205.815,262.193c-0.955,0.128-1.143,1.451-2.182,1.454
	c-1.524,0.005-1.849-1.265-2.908-1.454c-1.22-0.219-4.904,0.613-5.09,0.727c-0.172,0.106,0.169,2.156,0,2.182
	c-0.925,0.141-0.3-1.141-0.727-1.454c-1.108-0.812-4.874,2.111-6.545,0.728c-0.409-3.318,1.289-4.528,0.728-7.999
	c1.482-0.405,1.426-2.188,2.908-0.728c-1.166-3.336,3.154-6.857,3.636-10.907c0.589,0.139,0.725,0.73,1.455,0.728
	c-0.891-1.209-0.834-4.436-1.455-6.545c-0.079-0.271-1.684-1.997-1.454-2.181c1.378-1.103-1.116,0.162-1.454-1.454
	c1.065-1.6-0.087-5.42,2.182-5.817c-2.565-18.039-3.461-37.745-5.817-55.991c-2.067,0.559,3.445,0.507,3.636,0.727
	c-0.02-0.023-0.832,1.451-0.728,1.455c-0.248-0.008,2.738-1.167,4.363-2.182c1.279-0.8,2.079-2.083,3.636-2.909
	c0.862-0.457,1.361,0.75,1.454,0.727c0.818-0.208,0.366-0.83,0-0.727c5.086-1.434,11.873-1.297,18.178-2.182
	c3.563-0.5,10.557-1.523,15.999-2.182c0.759,0.94,0.034,2.286,0,2.182c0.31,0.933,1.257,1.157,1.454,2.182
	c0.267,1.39-0.125,2.951,0,4.363c0.518,5.854,2.145,12.683,2.907,19.633c0.621,5.654,0.805,11.672,1.455,17.452
	c0.573,5.093,2.032,10.29,2.182,14.542c0.084,2.391-1.063,3.465,0,5.818c-3.574-2.53,2.414,3.688-1.455,1.453
	c0.657,2.449,1.627,0.086,2.909,1.455c0.312,1.171-2.712,2.439-2.909,0.727c-1-2.006,0.062,1.898-0.727,2.182
	c-0.536,0.192-1.756-0.458-1.455-0.727c-0.771,0.691,0.761,1.928-0.727,2.182c-0.859,0.145-1.037-1.327-1.454-1.455
	c-0.951-0.293-2.948,2.458-2.908,0c-2.585,1.447-0.214,3.329-0.728,6.544c-4.017,0.167-2.139,8.237-6.544,5.817
	c-0.596,2.313-0.464,5.354-1.455,7.271c-2.115,1.321-3.407-1.451-2.908-1.454c-0.742,0.005-0.75,2.026-2.182,1.454
	c-0.006-2.176-1.307-3.056-2.908-3.636c-2.479-0.87-0.506,2.704,0,1.454c-0.357,0.886-1.671,0.781-2.182,1.455
	c-0.785,1.033-0.488,3.129-0.727,3.636c-0.158,0.333-2.368,0.274-0.728,0.728c-0.577,1.675-3.418-0.377-3.636-1.455
	c-1.858-0.784-2.545,3.131-3.636,0.728c-1.14,0.257,0.636,1.28-0.728,1.454"/>
</svg>
