<?xml version="1.0" encoding="utf-8"?>
<!-- Generator: Adobe Illustrator 15.0.0, SVG Export Plug-In . SVG Version: 6.00 Build 0)  -->
<!DOCTYPE svg PUBLIC "-//W3C//DTD SVG 1.1//EN" "http://www.w3.org/Graphics/SVG/1.1/DTD/svg11.dtd">
<svg version="1.1" id="Layer_1" xmlns="http://www.w3.org/2000/svg" xmlns:xlink="http://www.w3.org/1999/xlink" x="0px" y="0px"
	 width="432px" height="432px" viewBox="0 0 432 432" enable-background="new 0 0 432 432" xml:space="preserve">
<path fill-rule="evenodd" clip-rule="evenodd" fill="#959595" d="M159.492,196.45c1.504-0.935,1.989-5.055,1.989-7.721
	c0-2.667-2.182-1.697-1.454-2.909c0.727-1.212-1.211-4.121-0.242-4.605s0.969-0.484,0.969-0.484s82.168-1.212,90.41-3.151
	c0,0-0.242,2.909,1.575,3.635c3.33-0.359,0.077,3.166,0,5.09c-0.132,3.335,2.353,6.042,2.908,9.453
	c2.482,0.184,3.494,1.838,6.545,1.454c0.936,1.714-0.096,1.353,0.727,3.636c0.44,1.104,3.675,1.788,4.363,3.636
	c0.116,0.312-1.077,1.083-0.727,1.455c0.405,0.431,1.712,0.368,2.181,0.727c0.487,0.373,0.915,1.016,1.455,1.454
	c3.227,2.625,3.721,4.588,0.727,9.454c-1.442,0.98,0.229,5.076-2.182,5.09c-1.282,2.211-2.251-1.985-2.908,0
	c1.795,2.793-5.127,3.092-7.999,3.635c0.42,1.943-2.15,4.544,0,5.818c0.678,1.746,2.923,1.925,2.182,5.09
	c0.772,2.711-2.727,1.15-2.182,3.635c0.526,2.223-0.743,2.65-0.728,4.363c-1.304-0.092-1.533,0.891-2.424,1.212
	c0,0-2.544,1.939-2.302,4.605c0.239,2.641-4.525-4.612-6.908-5.09c-0.552-0.11-6.322,1.276-7.999,1.454
	c-18.486,1.96-43.256,2.092-62.534,2.182c0.67-1.49-1.836-2.127-2.182-3.636c-0.213-0.931,0.815-3.144,0.728-4.363
	c-0.138-1.882-1.103-4.616-1.455-7.271c-0.072-0.54,0.769-0.757,0.728-1.454c0.001,0.023-0.661-0.99-0.728-1.455
	c-0.403-2.875,0.051-2.193-1.454-3.635c-1.118-1.072,0.238-1.201-0.728-2.182c0.383,0.389-1.764,0.54-1.454-0.727
	c0.692-9.176-5.413-11.555-5.091-20.361c-1.846-1.324-4.111-4.497-1.453-4.363c-1.295-0.634-2.847,0.182-2.909-2.181
	c-0.034-1.304,0.556-1.489,0.728-0.727"/>
</svg>
