<?xml version="1.0" encoding="utf-8"?>
<!-- Generator: Adobe Illustrator 15.0.0, SVG Export Plug-In . SVG Version: 6.00 Build 0)  -->
<!DOCTYPE svg PUBLIC "-//W3C//DTD SVG 1.1//EN" "http://www.w3.org/Graphics/SVG/1.1/DTD/svg11.dtd">
<svg version="1.1" id="Layer_1" xmlns="http://www.w3.org/2000/svg" xmlns:xlink="http://www.w3.org/1999/xlink" x="0px" y="0px"
	 width="432px" height="432px" viewBox="0 0 432 432" enable-background="new 0 0 432 432" xml:space="preserve">
<path fill-rule="evenodd" clip-rule="evenodd" fill="#959595" d="M278.022,186.017c-0.365,0.614-1.044,2.241-1.454,3.636
	c-0.378,1.285,0.327,3.413-1.454,3.635c0.632,2.148,1.089-1.687,2.908-0.727c-0.132,1.586,0.596,2.313,2.182,2.182
	c-0.797,4.917,3.958,4.283,5.091,7.271c0.086,16.638,1.199,32.25,0.727,49.447c-46.245,2.058-93.542-0.274-138.886-1.455
	c1.022-24.186,1.934-48.481,3.636-71.987c23.355,2.324,49.429,0.885,74.17,2.909c7.695,0.629,16.574,0.326,23.995,0
	c8.579-0.377,16.524-1.962,21.814-0.727c2.711,0.632,2.431,0.761,4.363,2.908c2.103,2.1,3.315-2.456,3.636,0.727
	c1.236-0.267,1.372,0.567,1.454,1.455C276.52,184.256,278.56,184.964,278.022,186.017z"/>
</svg>
