<?xml version="1.0" encoding="utf-8"?>
<!-- Generator: Adobe Illustrator 15.0.0, SVG Export Plug-In . SVG Version: 6.00 Build 0)  -->
<!DOCTYPE svg PUBLIC "-//W3C//DTD SVG 1.1//EN" "http://www.w3.org/Graphics/SVG/1.1/DTD/svg11.dtd">
<svg version="1.1" id="Layer_1" xmlns="http://www.w3.org/2000/svg" xmlns:xlink="http://www.w3.org/1999/xlink" x="0px" y="0px"
	 width="432px" height="432px" viewBox="0 0 432 432" enable-background="new 0 0 432 432" xml:space="preserve">
<path fill-rule="evenodd" clip-rule="evenodd" fill="#959595" d="M152.458,249.551c2.522-6.641-3.418-12.933,2.909-15.271
	c3.529,0.327,6.557,4.289,10.18,2.182c0.652-3.561-2.4-3.415-1.454-7.271c2.521-0.388,3.871-1.945,6.544-2.181
	c1.424-2.584-0.949-2.644-0.727-5.818c0.79-1.433,5.255-2.93,3.636-4.362c1.318-0.831,3.524-0.672,4.363,0.728
	c2.749-0.937,0.995-1.864,3.636-2.909c2.775,0.375,5.449,0.853,6.544,2.909c2.11-1.041,2.067-4.235,4.362-5.09
	c1.842,0.824,4.123,1.209,5.091,2.908c1.786-1.85,1.659-5.611,3.636-7.271c2.246-2.259,1.229,2.461,4.362,1.454
	c0.86,1.958,3.791-0.003,5.091,0c0.433-1.507-0.899-4.777,0.727-5.09c-0.11-2.292,2.948-1.414,3.636-2.908
	c-0.547-3.941,2.51-4.276,3.637-6.545c0.297-1.751-1.329-1.581-0.728-3.635c1.132-2.005,3.352,0.776,3.636,0.727
	c2.542-0.437,3.027-4.075,7.271-3.636c0.164-3.072-1.12-4.696-1.454-7.271c0.788-1.521,2.335,0.083,3.636,0
	c1.521-0.097,2.282-1.176,3.637-0.727c3.097,1.026,3.735,4.777,5.816,6.544c4.053-0.417,6.939,0.333,8.726,2.182
	c2.32,0.624,2.249-1.145,3.637-1.454c3.114-0.163,2.965,2.419,5.817,0.727c2.351-0.315,2.885-2.447,4.362-3.636
	c1.901,2.461,4.436,4.291,7.271,5.817c0.008,2.264,1.72,4.738,0,6.544c4.207,4.519,6.622,10.829,12.361,13.816
	c1.3-0.205,1.491,0.688,0.728,0.728c-2.147,5.612-8.724,7.122-11.635,13.089c-1.16,2.378-1.311,2.861-3.636,5.09
	c-0.896,0.858-1.981,2.766-2.182,2.908c-0.512,0.367-2.558,0.168-3.636,0.727c-0.316,0.166-0.464,1.336-0.728,1.455
	c-0.395,0.178-1.072-0.202-1.453,0c-1.488,0.788-3.13,2.553-4.363,2.908c-2.01,0.58-7.172,0.201-10.907,0.728
	c-1.548,0.218-6.396,1.281-8.726,1.454c-3.046,0.227-5.808-0.299-8.727,0c-3.929,0.402-8.946,1.825-14.543,2.182
	c-2.864,0.183-5.787-0.21-8.726,0c-10.923,0.779-21.912,4.193-31.268,2.182c-0.583,2.521,1.084,2.795,0.728,5.09
	c-7.322,0.192-13.477,1.551-21.088,1.455"/>
</svg>
