<?xml version="1.0" encoding="utf-8"?>
<!-- Generator: Adobe Illustrator 15.0.0, SVG Export Plug-In . SVG Version: 6.00 Build 0)  -->
<!DOCTYPE svg PUBLIC "-//W3C//DTD SVG 1.1//EN" "http://www.w3.org/Graphics/SVG/1.1/DTD/svg11.dtd">
<svg version="1.1" id="Layer_1" xmlns="http://www.w3.org/2000/svg" xmlns:xlink="http://www.w3.org/1999/xlink" x="0px" y="0px"
	 width="432px" height="432px" viewBox="0 0 432 432" enable-background="new 0 0 432 432" xml:space="preserve">
<path fill-rule="evenodd" clip-rule="evenodd" fill="#959595" d="M220.736,170.445c1.796,0.137-0.172,1.63,0,2.909
	c0.13,0.959,1.455,2.106,1.455,2.18c-0.008,0.873-1.67,1.254-1.455,2.182c0.195,0.839,1.252,0.949,1.455,1.454
	c0.241,0.604-0.299,1.609,0,2.182c0.705,1.358,1.911,2.307,2.908,3.636c-0.507,1.916-3.311,1.538-3.636,3.636
	c0.532,0.679,1.321,1.102,2.182,1.454c-0.21,0.849-4.126,2.102-0.728,2.182c-1.391,2.003-3.088,3.7-5.09,5.091
	c1.314,2.815-3.05,5.991-2.909,7.271c0.137,1.232,0.848,1.601,0.728,2.909c-0.009,0.088-1.361-0.096-1.454,0
	c-0.696,0.716,1.348,1.978,0.727,2.908c-0.585,0.384-1.18,0.758-2.182,0.728c0.806,2.443,2.175,5.791,0,7.27
	c13.101-1.2,27.041-1.561,39.994-2.908c-1.022,1.886-1.008,4.81-2.182,6.545c1.424,4.761,4.348,6.875,6.544,11.635
	c-0.896,2.484-2.161-0.385-3.636-0.728c-1.088-0.254-2.604,0.411-3.636,0c-0.86-0.344-2.56-3.548-5.089-2.908
	c-2.666,1.454-4.51,3.732-5.091,7.271c3.475,3.787,12.124-0.425,13.815-0.728c2.559,1.245-1.824,1.466-1.454,2.909
	c0.968,1.699,3.249,2.082,5.09,2.909c2.087-0.582,0.457-4.876,3.637-4.363c-0.834,3.015,1.529,2.832,1.454,5.09
	c-3.366-0.313-4.892,1.212-3.636,3.636c-3.488-0.276-0.618,1.261-2.909,2.182c-0.826,2.674,3.038,1.864,4.363,2.907
	c0.429,0.338,0.184,1.935,0.728,2.182c0.333,0.153,1.334-1.079,2.182-0.728c0.429,0.18,1.587,2.533,4.361,1.454
	c1.369,1.687,3.008,3.098,1.455,5.818c-1.777-0.404-2.657-1.705-3.636-2.909c-0.739,0.473-0.752,1.673-2.181,1.454
	c0.091-1.305-0.891-1.532-0.728-2.908c-2.311,1.101-3.334-0.967-4.363-1.455c-0.537-0.254-1.7,0.339-2.182,0
	c-0.393-0.274-0.324-1.83-0.727-2.181c-1.156-1.006-2.221,0.177-4.363-0.728c-1.379-0.581-2.715-2.673-5.09-2.18
	c-0.82,3.486,2.772,2.559,3.636,4.361c1.193,1.697-1.399,1.963-1.455,2.182c-0.264,1.058,2.392,3.789-0.727,4.363
	c-2.443,0.745-1.133-2.263-1.454-3.637c-0.765-0.458-3.015,0.606-3.636,0c-0.715-0.697,0.474-1.775-2.182-0.727
	c-1.905,0.753-3.103,1.847-3.636,5.09c-2.076-0.007-6.436-2.693-7.999-1.454c-0.639-3.724-4.584-4.141-3.635-9.451
	c-1.552-0.341-1.386,1.037-1.455,2.18c-2.295,0.356-2.567-1.309-5.09-0.728c-0.502-3.133-2.423-4.848-6.545-4.361
	c0-0.728,0-1.454,0-2.182c-2.646,0.746-4.497,2.288-7.271,2.909c-2.034,0.935,2.29,1.503,1.454,3.634
	c-1.487-1.086-2.341,1.329-3.636,1.454c-1.17,0.114-3.954-1.239-5.817-1.454c-3.44-0.395-5.202-1.002-8.727-2.18
	c-1.979-0.664-3.225-2.167-5.816-1.454c1.532-2.827,0.124-5.537-1.454-7.272c-0.347,1.875-2.459,5.727-1.455,6.545
	c-1.506,2.372-6.739,1.015-9.453,2.182c-1.018-1.601,1.619-1.671,2.182-2.909c0.451-0.992-0.295-2.577,0-3.636
	c0.197-0.705,1.339-1.209,1.454-2.182c0.246-2.049-1.313-3.168-1.454-5.09c-0.095-1.313,0.414-4.551,0.728-5.817
	c0.395-1.604,2.506-3.206,2.908-5.091c0.738-3.456,0.434-8.608,0-10.181c-0.315-1.144-2.371-1.983-2.908-2.906
	c-0.836-1.439-0.342-5.463-2.909-5.818c0.733-6.065-2.903-7.761-5.089-10.907c0.535-8.534-0.83-15.168-0.728-23.269
	c13.444-0.215,28.428-1.452,42.175-2.182c4.707-0.25,9.504-0.299,13.815,0C218.096,172.438,219.369,171.954,220.736,170.445z"/>
<path fill-rule="evenodd" clip-rule="evenodd" fill="#959595" d="M212.737,253.339c-1.534,1.604-2.148-0.933-4.362-0.727
	C209.095,250.834,212.805,250.658,212.737,253.339z"/>
<path fill-rule="evenodd" clip-rule="evenodd" fill="#959595" d="M224.373,256.975c0.789,0.18,0.492,1.447,1.453,1.455
	C225.184,260.399,222.601,257.818,224.373,256.975z"/>
</svg>
