<?xml version="1.0" encoding="utf-8"?>
<!-- Generator: Adobe Illustrator 15.0.0, SVG Export Plug-In . SVG Version: 6.00 Build 0)  -->
<!DOCTYPE svg PUBLIC "-//W3C//DTD SVG 1.1//EN" "http://www.w3.org/Graphics/SVG/1.1/DTD/svg11.dtd">
<svg version="1.1" id="Layer_1" xmlns="http://www.w3.org/2000/svg" xmlns:xlink="http://www.w3.org/1999/xlink" x="0px" y="0px"
	 width="432px" height="432px" viewBox="0 0 432 432" enable-background="new 0 0 432 432" xml:space="preserve">
<path fill-rule="evenodd" clip-rule="evenodd" fill="#959595" d="M181.593,221.141c0.12-1.219,1.958-0.298,2.909-0.728
	c1.676-0.758,0.946-3.489,3.635-2.908c-0.419-1.521-1.804-2.075-1.454-4.363c0.63-2.277,1.802-4.016,3.636-5.09
	c-1.923-1.97,0.771-2.726,0.727-4.363c-0.079-2.941-2.387-5.057-2.182-7.999c-0.009,0.144,0.426-2.933,0.728-3.636
	c0.272-0.628,1.36-0.424,1.454-1.454c0.213-2.314-0.901-4.902-0.727-7.271c0.152-2.067,1.506-3.095,2.182-5.09
	c0.488-1.444,0.209-3.416,0.727-5.09c0.427-1.377,1.049-2.518,1.454-3.636c0.371-1.023,1.054-2.614,1.455-3.636
	c0.382-0.971,0.477-3.311,2.182-2.909c1.901-0.557,0.923,1.326,1.454,2.182c0.831,1.336,2.318,1.54,2.908,2.909
	c3.91-1.422,6.55-4.115,9.453-6.545c1.335,0.235,3.377-0.044,5.09,0.728c0.622,0.28,0.899,1.812,1.455,2.182
	c0.639,0.427,2.439,0.163,2.908,0.727c0.539,0.649,1.298,3.914,2.182,6.544c1.619,4.822,2.853,10.126,5.09,15.998
	c0.683,1.792,2.06,4.471,2.181,7.999c1.336,1.573,4.287,1.53,7.272,1.454c-0.025,4.874,2.198,7.497,4.363,10.18
	c0.744-0.71,1.471-1.437,2.181-2.181c1.689,0.492,1.946,2.417,3.636,2.909c-0.01,1.445-1.983,0.925-1.454,2.909
	c0.492,1.44,2.417,3.197,2.908,0.727c1.66,1.513-2.004,6.762-4.363,4.363c-0.977,2.416-2.336,4.45-4.362,5.816
	c-0.789-0.18-0.492-1.445-1.454-1.454c-1.968,0.177-0.796,3.046-0.728,2.909c-0.602,1.195-3.27,0.355-2.181,2.908
	c-1.275-0.665-3.628-0.25-4.363-1.454c-1.161,1.97-1.579,3.833-3.636,1.454c0,1.939,0,3.879,0,5.817
	c-4.499,1.348-2.208-4.095-4.362-5.091c-2.122-1.357-0.981,2.093-1.455,2.909c-0.092,0.159-1.403-0.163-1.454,0
	c-0.371,1.204,0.732,2.218,0.728,3.636c-0.012,2.535-1.472,4.984-0.728,7.998c-1.474,1.436-6.209-0.391-5.09,3.637
	c-0.838,2.353-0.823-1.953-0.728-2.908c-2.217,0.952-4.137,4.472-5.09,0.727c-1.889,2.276,0.737,4.571-0.728,7.271
	c-0.977,0.494-0.449-2.125-0.728-2.182c-0.648-0.133-3.056,1.47-3.636,3.636c-0.33,1.233,0.24,3.188,0,4.363
	c-0.245,1.199-1.353,1.7-1.453,2.181c-0.269,1.267,1.044,1.568,0.727,2.909c-0.257,1.084-1.882,1.962-2.182,2.909
	c-0.805,2.543,0.342,5.106-0.727,5.816c-1.916,0.219-2.388-1.006-2.182-2.908c-2.459,0.035-3.154-1.693-4.363-2.908
	c0.64-4.307-2.448-7.968-3.636-11.635c-0.843-2.606-0.783-4.457-1.454-7.271c-0.042-0.181-0.728-0.043-0.728-0.728
	c0-0.349,0.625-1.038,0.728-0.728c-0.303-0.917-1.845-1.445-2.182-2.182c-0.299-0.652-0.698-2.808-0.727-2.908
	C185.87,233.073,184.281,226.682,181.593,221.141z"/>
</svg>
