<?xml version="1.0" encoding="utf-8"?>
<!-- Generator: Adobe Illustrator 15.0.0, SVG Export Plug-In . SVG Version: 6.00 Build 0)  -->
<!DOCTYPE svg PUBLIC "-//W3C//DTD SVG 1.1//EN" "http://www.w3.org/Graphics/SVG/1.1/DTD/svg11.dtd">
<svg version="1.1" id="Layer_1" xmlns="http://www.w3.org/2000/svg" xmlns:xlink="http://www.w3.org/1999/xlink" x="0px" y="0px"
	 width="432px" height="432px" viewBox="0 0 432 432" enable-background="new 0 0 432 432" xml:space="preserve">
<path fill-rule="evenodd" clip-rule="evenodd" fill="#959595" d="M243.95,225.764c-0.088,1.85-1.059,2.819-2.908,2.908
	c0.527-2.225-1.255-2.139-0.728-4.363c-2.672,1.449-4.063,4.178-5.817,6.545c-2.583-0.084-2.926-2.406-2.908-5.09
	c-0.679,0.532-1.102,1.322-1.454,2.181c-2.215-1.179-3.097-3.689-4.363-5.817c-13.601,1.185-23.194,6.377-37.085,7.271
	c0.406-6.471,0.837-8.72,0.728-15.997c8.979-1.826,21.948-4.52,30.541-6.544c2.59-0.61,5.704-3.308,6.543-6.545
	c0.846,0.119,1.295-0.16,1.455-0.727c2.184,1.624,2.603,6.641,6.544,4.363c-2.678,1.927-4.326,4.884-5.817,7.999
	c0.139,0.589,0.73,0.725,0.728,1.454c1.244,2.181,2.646,0.808,5.09,0.728c0.965,1.702,3.605,1.727,2.909,5.09
	c3.315,0.563,3.19,4.566,6.544,5.09"/>
</svg>
