<?xml version="1.0" encoding="utf-8"?>
<!-- Generator: Adobe Illustrator 15.0.0, SVG Export Plug-In . SVG Version: 6.00 Build 0)  -->
<!DOCTYPE svg PUBLIC "-//W3C//DTD SVG 1.1//EN" "http://www.w3.org/Graphics/SVG/1.1/DTD/svg11.dtd">
<svg version="1.1" id="Layer_1" xmlns="http://www.w3.org/2000/svg" xmlns:xlink="http://www.w3.org/1999/xlink" x="0px" y="0px"
	 width="432px" height="432px" viewBox="0 0 432 432" enable-background="new 0 0 432 432" xml:space="preserve">
<path fill-rule="evenodd" clip-rule="evenodd" fill="#959595" d="M209.636,180.68c-0.138-0.589-0.729-0.725-0.727-1.455
	c-4.156-0.762-3.188,3.6-6.545,3.636c0-1.212,0-2.424,0-3.636c-2.291,1.149-2.208,4.34-3.636,6.545
	c-1.943,3-3.857,8.827-5.816,13.088c-2.487-0.387-1.114-3.503-0.728-5.09c0.521-1.179-3.43-1.179-2.909,0
	c-0.765-4.44,1.765-10.657-5.817-10.18c0.233-1.686-0.116-2.792-0.727-3.636c-2.092,1.022-4.397-1.305-6.545-1.455
	c-1.864-0.13-4.298,0.996-7.271,0c-0.38-0.127-1.182-1.371-1.455-1.454c-4.817-1.457-12.509-2.115-18.905-3.636
	c-0.264-2.645-1.719-4.1-4.363-4.363c0.567-2.099,3.517-1.815,5.09-2.909c1.751-1.157,2.41-3.408,4.363-4.363
	c6.612,1.038,7.694-3.455,12.361-4.363c1.024-1.885,2.46-3.357,3.636-5.09c4.47,0.378,4.21,5.485,5.091,9.453
	c2.297,0.359,0.269-3.608,2.907-2.909c0.134,0.619-0.283,0.686-0.727,0.727c2.188,0.866,2.854-1.997,5.09-2.181
	c5.068-0.418,8.891,4.975,10.908,8.726c5.6-0.579,7.66-0.485,12.361,0.728c2.314,0.437,2.103-2.143,2.908-2.909
	c0.534-0.508,1.966-0.646,2.909-1.454c1.729-1.483,1.222-1.92,5.089-2.909c2.045-0.522,4.167,0.1,7.271-0.727
	c2.79-0.743,4.928-3.575,8-2.909c-0.226,2.648,0.114,4.732,0.727,6.544c3.613,0.888,6.916-1.924,7.998,0.727
	c1.48-0.216,1.938-1.456,2.909-2.182c2.138,0.529,3.065,2.267,2.908,5.09c1.586,2.294,4.979,2.778,5.817,5.817
	c-3.964-0.157-8.742,0.501-11.635-0.728c-1.857,0.082-1.443,2.436-1.454,4.363c-2.132-0.05-2.7-1.663-3.636-2.909
	c-3.433-0.2-6.709-1.948-9.453-0.727c-1.796,0.627-2.151,2.696-3.636,3.636c-3.715,0.425-6.695-0.25-8.726,1.454
	c-1.375,1.154-0.836,3.09-2.908,4.363"/>
<path fill-rule="evenodd" clip-rule="evenodd" fill="#959595" d="M226.36,198.131c0,1.697,0,3.393,0,5.09
	c0.364,2.146,0.958-0.972,2.182-0.728c0.003,0.001,0.173,1.152,0.728,0.728c1.042-0.8,1.988-2.703,2.182-4.363
	c0.193-1.669-1.319-4.163-0.728-5.817c0.996-2.789,2.419-4.301,5.816-4.363c0.993-3.175-2.815-1.547-2.182-4.363
	c0.319-3.074,2.952-3.835,4.363-5.817c1.841-0.595,2.255,1.684,4.363,2.182c2.788,0.659,6.666-0.6,7.271,2.909
	c6.479,0.55,11.521,2.538,14.543,6.544c0.116,2.056-2.185,1.693-2.182,3.636c0.565,2.101,2.655,2.677,3.636,4.363
	c0.194,4.543,2.457,10.921-2.182,13.089c0.56,2.74-0.887,3.476-0.727,5.817c-1.485,0.696-2.878,1.486-4.363,2.182
	c-0.695,6.004,0.187,8.714,5.09,9.453c1.712-3.137,5.202-4.494,5.091-9.453c3.386-0.49,3.951-3.805,7.998-3.636
	c6.408,4.983,5.33,17.454,10.907,23.269c-1.432,1.962-0.434,6.354-0.727,9.453c-2.353,0.898-0.557-2.354-2.909-1.455
	c-2.24,1.396-3.384,3.89-2.908,8c-1.449,0.732-2.546,1.816-3.636,2.908c1.246,7.063-3.377,8.258-3.637,13.816
	c-7.248,0.504-14.381,3.309-21.813,3.635c-2.069,0.092-4.388-0.748-6.545-0.727c-6.276,0.064-13.701,2.121-20.36,2.908
	c-2.537,0.301-5.41-0.162-7.999,0.727c-2.39,0.531-1.112-1.444,0-1.453c1.174-2.035,1.608-3.787,2.909-7.271
	c1.329-3.56,3.369-9.521,2.908-15.998c-0.317-4.459-2.799-7.963-2.181-11.635c-2.779-0.965-2.901-2.813-4.363-5.816
	c-0.354-0.729-1.278-1.187-1.454-2.182c-0.316-1.789,1.31-2.381,1.454-4.363c0.169-2.322-0.872-4.125-2.182-5.816
	c1.102-3.533,4.247-6.178,3.636-12.362c-0.116-1.177-0.827-2.29-0.728-2.909c0.39-2.408,3.245-3.425,2.182-5.817
	c2.464-1.171,4.672-2.6,5.817-5.09"/>
</svg>
