<?xml version="1.0" encoding="utf-8"?>
<!-- Generator: Adobe Illustrator 15.0.0, SVG Export Plug-In . SVG Version: 6.00 Build 0)  -->
<!DOCTYPE svg PUBLIC "-//W3C//DTD SVG 1.1//EN" "http://www.w3.org/Graphics/SVG/1.1/DTD/svg11.dtd">
<svg version="1.1" id="Layer_1" xmlns="http://www.w3.org/2000/svg" xmlns:xlink="http://www.w3.org/1999/xlink" x="0px" y="0px"
	 width="432px" height="432px" viewBox="0 0 432 432" enable-background="new 0 0 432 432" xml:space="preserve">
<path fill-rule="evenodd" clip-rule="evenodd" fill="#959595" d="M240.106,203.228c-0.873-0.955-0.283-1.144,0-2.182
	c-2.914,0.936,0.199,1.504,0,3.636c-2.052,0.131-0.907,3.456-3.636,2.909c-0.471,5.471,0.74,11.794,0,15.27
	c-2.489,1.643-5.464,1.934-7.271,4.363c-0.376,0.506-0.063,2.451-0.728,3.635c-0.35,0.624-1.906,0.699-1.454,2.182
	c0.263,2.646,3.141,2.676,4.362,4.363c0.38,2.114-1.144,2.941-1.454,5.09c-0.445,3.084,0.873,6.238,0.728,8.727
	c-0.066,1.128-1.654,1.622-1.454,2.181c0.338,0.944,1.217,2.575,0,2.182c0.253,1.231,1.014-0.487,2.181,0
	c0.187,0.077-0.157,1.296,0,1.454c0.223,0.223,1.266-0.244,1.455,0c0.402,0.521,0.176,2.282,0,2.182
	c0.191,0.109,1.042-0.728,1.454-0.728c0.809,0,0.424,0.792,0,0.728c1.765,0.269,1.535-0.139,3.636,0
	c1.022,2.537-0.492,1.119,1.454,2.182c0.882,0.48,3.28,1.925,5.09,2.182c1.028,2.607,3.146,4.126,4.363,6.544
	c1.466,0.913,4.055,0.768,5.09,1.454c3.482,2.311,3.164,6.97,4.363,10.908c-28.641,2.143-58.52,3.045-89.439,2.908
	c-2.102-11.387,3.434-36.831-1.455-44.356c-0.119-0.185-1.418-0.601-1.454-0.728c-0.091-0.317,1.064-1.078,0.728-1.454
	c0.015,0.016-2.117,1.15-2.908,0.728c-0.562-0.301,0.009-4.047-2.182-3.636c0.636-1.071,1.406-0.915,2.909-2.909
	c0.215-0.285,1.396-1.308,1.454-1.454c0.171-0.426-0.311-1.87,0-2.182c-0.005,0.005,1.939,0.958,2.182,0
	c0.173-0.683-1.218,0.192-1.454-0.727c-0.676-2.632,0.135-6.483-0.728-10.181c-0.532-2.285-2.542-3.401-2.908-7.271
	c-0.308-3.235-0.53-6.576-0.728-9.453c-0.077-1.102,0.728-2.9,0.728-2.909c-0.136-1.467-1.271-3.118-1.455-4.363
	c-0.558-3.769-0.178-7.342,0-10.18c-0.728-1.001-1.199,0.31-2.182-1.455c-0.449-5.09-2.875-9.851-2.182-17.452
	c0.277-3.036,0.25-6.23-1.454-9.453c9.05-2.044,25.97,0.535,32.722-1.455c1.391-1.054-0.054-4.489,0-7.999c1.212,0,2.424,0,3.636,0
	c0.777-0.68,0.044,3.231,0,2.909c0.118,0.866,0.837,0.342,0.728,0c0.684,2.129,1.73,4.362,2.181,6.544
	c0.194,0.938,0.46,4.427,0.728,3.636c-0.974,2.884-1.851-0.882-3.636,0.728c0.585,0.597,1.292,0.594,2.182,0.727
	c-0.141-0.021,0.337,1.215,0.727,0.727c1.609-2.011,2.228,0.24,4.363,0.728c0.38,0.087,1.314-0.788,2.182-0.728
	c-0.199-0.014,5.637,1.106,6.544,1.455c0.296,0.114,1.241-0.214,1.454,0c0.779,0.778-0.048,2.016,1.455,2.181
	c1.086,0.12,4.65-0.101,4.362,0c2.169-0.76,1.269-2.649,3.637-2.908c1.871-0.204,4.645,0.031,6.543,0.727
	c0.455,0.167,2.809,1.371,2.909,1.454c0.825,0.683-0.288,3.895,2.182,2.182c0.28,2.628,2.345,3.472,3.636,5.09
	c2.36-0.063,0.512-4.335,3.636-3.635c1.289,0.213,0.917,2.141,2.182,2.909c1.06,0.644,4.667-0.424,3.635,2.908
	c2.615,1.348,7.318-0.069,8.727,0.727c-0.097-1.391,2.439-2.972,4.363-4.362c2.729-0.548,1.584,2.777,3.636,2.908
	c3.262-0.81,6.229-1.138,9.452-0.728c1.586,0.202,3.845,3.232,6.545,1.455c-0.331,1.94-2.83,3.629-4.363,2.182
	c-1.642,0.407,0.883,1.134-0.727,2.182c-3.833,1.256-8.329,1.852-10.18,5.09c-0.943,0.555-1.556-1.143-2.182-0.728
	c-0.068,0.046,0.81,1.138,0.727,1.455c-0.022,0.088-2.386,1.624-2.908,2.182c-1.037,1.106-1.66,3.157-3.636,2.909
	c0.754,2.736-1.733,2.853-2.909,4.363c-0.241,0.31-0.428,1.942-0.728,2.181c-0.863,0.689-1.903-0.275-2.181,0
	c-0.196,0.195,0.946,1.015,0.727,1.455c-0.061,0.122-2.898,1.468-3.636,2.181C243.479,200.549,242.681,203.009,240.106,203.228z"/>
</svg>
