<?xml version="1.0" encoding="utf-8"?>
<!-- Generator: Adobe Illustrator 15.0.0, SVG Export Plug-In . SVG Version: 6.00 Build 0)  -->
<!DOCTYPE svg PUBLIC "-//W3C//DTD SVG 1.1//EN" "http://www.w3.org/Graphics/SVG/1.1/DTD/svg11.dtd">
<svg version="1.1" id="Layer_1" xmlns="http://www.w3.org/2000/svg" xmlns:xlink="http://www.w3.org/1999/xlink" x="0px" y="0px"
	 width="432px" height="432px" viewBox="0 0 432 432" enable-background="new 0 0 432 432" xml:space="preserve">
<path fill-rule="evenodd" clip-rule="evenodd" fill="#959595" d="M270.733,264.73c1.192,6.65-9.266,5.109-12.362,5.09
	c0.207-3.913,4.361-3.879,5.09-7.271c-1.01-1.109-1.22-3.728-2.182-4.362c-1.99-1.313-19.475,1.115-26.178,1.454
	c-18.829,0.953-43.709,1.659-59.626,2.182c-0.266-21.307-0.465-42.68-1.454-63.262c-1.095-1.328-3.138-1.71-4.362-2.908
	c0.245-4.367-4.201-4.042-4.363-7.999c1.104-1.32,1.826-3.022,3.636-3.636c0.703-5.229-3.324-3.821-5.817-4.363
	c0.203-1.816-2.052-1.168-2.909-2.181c-1.03-1.219-1.314-3.622-2.182-5.09c-1.691-2.87-5.109-5.181-5.089-8.726
	c13.744,0.019,30.172,0.213,45.083-0.727c2.935-0.185,8.307-0.419,13.089-0.727c4.627-0.298,9.352-2.15,12.361-1.455
	c2.977,0.689,4.255,4.014,6.545,5.09c-1.528,5.114-0.255,11.279,2.182,15.27c0.828,1.357,2.266,2.312,3.635,3.636
	c0.532,0.515,1.731,0.896,2.182,1.455c0.489,0.607,0.146,1.697,0.727,2.182c0.686,0.57,2.911,0.917,3.637,1.454
	c1.157,0.855,0.754,2.077,2.182,2.181c1.011,3.11,0.86,7.379,2.908,9.453c2.619,0.438,2.144-2.22,4.362-2.182
	c1.57,0.855,3.34,1.509,5.09,2.182c-0.437,6.402-6.073,11.791-2.181,16.725c1.164,1.475,2.121,2.526,3.636,3.636
	c0.959,0.702,3.669,0.635,3.636,2.909c2.607-0.883,4.315,1.562,5.817,2.908c0.454,0.407,1.855,0.98,2.182,1.454
	c0.445,0.647,0.182,2.313,0.728,3.636c0.354,0.863,2.547,2.054,1.453,4.363c-0.014,0.031-1.415,0.875-1.453,0.727
	c0.741,2.824,3.467,4.055,3.635,6.545c1.85,1.299,3.546-0.807,5.09,1.454c-0.908,0.779,0.179,1.797,0,2.908
	c-0.169,1.06-1.068,1.467-1.454,2.909c-0.206,0.768,1.332,1.309,0,2.908c0.265-0.318-1.795-0.217-2.182,0
	c-1.517,0.848-2.287,3.807-2.908,0c-1.847,1.68-1.045,3.242-0.728,5.817c-2.533,0.36-0.945,1.249-1.453,2.181
	C270.37,263.213,269.493,264.482,270.733,264.73"/>
</svg>
