<?xml version="1.0" encoding="utf-8"?>
<!-- Generator: Adobe Illustrator 15.0.0, SVG Export Plug-In . SVG Version: 6.00 Build 0)  -->
<!DOCTYPE svg PUBLIC "-//W3C//DTD SVG 1.1//EN" "http://www.w3.org/Graphics/SVG/1.1/DTD/svg11.dtd">
<svg version="1.1" id="Layer_1" xmlns="http://www.w3.org/2000/svg" xmlns:xlink="http://www.w3.org/1999/xlink" x="0px" y="0px"
	 width="432px" height="432px" viewBox="0 0 432 432" enable-background="new 0 0 432 432" xml:space="preserve">
<path fill-rule="evenodd" clip-rule="evenodd" fill="#959595" d="M190.706,187.418c0.118-0.846-0.161-1.294-0.728-1.454
	c0.662-1.278,2.549-1.33,3.637-2.182c-2.772-5.817,7.693-8.198,5.089-13.815c0.981-1.627,2.093-1.637,2.182-2.909
	c0.232-3.335,0.683-2.011,2.182-4.362c0.3-0.471,1.036-1.057,0.728-2.182c12.954-1.589,27.15-1.936,39.993-3.637
	c-0.34,1.553,1.038,1.386,2.182,1.455c-0.862,18.266-0.585,36.839-1.455,55.264c-0.869,18.387,3.427,35.611,5.091,51.81v1.272
	c-1.643,0.406,0.881,1.133-0.728,2.182c-1.854-0.724-3.528-2.069-4.363,0c-2.128-0.523-2.369-1.423-4.362-1.454
	c-3.028-0.051-6.103,3.067-9.453,2.909c-1.364,0.816-1.545,2.816-2.908,3.634c-3.197,0.288-2.51-3.308-3.637-5.089
	c-0.565-2.101-2.655-2.679-3.636-4.363c-0.646-4.041,1.397-5.391,1.455-8.726c-11.779-1.597-24.771,1.89-37.813,1.454
	c-1.852-2.81-1.671-6.68,1.455-5.817c-0.87-1.045-0.618-3.264-0.728-3.636c-0.351-1.188,0.218-2.5,0.728-3.637
	c-0.026,0.059,1.247-0.31,0.727-0.727c-2.079-1.664,3.637-2.912,1.454-5.817c2.003-1.39,3.7-3.087,5.091-5.089
	c-0.372-2.131,2.309-4.1-1.454-3.636c1.468-0.957,2.53-2.316,4.363-2.909c-0.298-2.127-2.489-2.36-3.637-3.636
	c1.593-1.514-0.638-2.352,0.728-3.636c-0.226-0.987-1.821-0.604-2.909-0.728c0.711-0.743,1.438-1.471,2.182-2.181
	c-0.117-0.853-1.326-0.613-2.182-0.728c-0.345-2.284,0.907-2.971,2.182-3.636c-0.199-1.498-2.709-0.685-2.908-2.182
	c-1.06-2.969,2.604-2.762,1.454-6.545c-0.092-0.299-1.424-1.283-1.454-1.454c-0.251-1.404,0.884-2.449,0.727-2.908
	c-0.693-2.018-2.679-1.825-2.182-3.636c1.054-0.886,0.975-2.904,2.909-2.909c-0.118-0.852-1.326-0.612-2.182-0.727
	c0.08-1.374,2.404-0.505,2.182-2.182"/>
</svg>
