<?xml version="1.0" encoding="utf-8"?>
<!-- Generator: Adobe Illustrator 15.0.0, SVG Export Plug-In . SVG Version: 6.00 Build 0)  -->
<!DOCTYPE svg PUBLIC "-//W3C//DTD SVG 1.1//EN" "http://www.w3.org/Graphics/SVG/1.1/DTD/svg11.dtd">
<svg version="1.1" id="Layer_1" xmlns="http://www.w3.org/2000/svg" xmlns:xlink="http://www.w3.org/1999/xlink" x="0px" y="0px"
	 width="432px" height="432px" viewBox="0 0 432 432" enable-background="new 0 0 432 432" xml:space="preserve">
<path fill-rule="evenodd" clip-rule="evenodd" fill="#959595" d="M123.443,155.423c10.23,0.858,23.035,4.065,33.449,5.817
	c17.259,2.905,35.631,6.033,53.809,8.726c21.875,3.24,45.165,5.915,67.625,7.999c7.521,0.698,15.025,1.708,22.542,2.182
	c4.467,0.281,8.983,0.093,13.089,0.727c-3.012,30.922-3.809,64.058-7.271,94.529c-30.619-2.643-61.903-5.209-92.348-9.452
	c-8.465-1.181-17.075-3.167-25.451-2.909c-2.022,2.098-1.894,6.348-2.181,10.181c-3.024,0.116-1.453-4.364-3.636-5.091
	c-3.958-0.807-2.323,3.979-5.817,3.637c-3.032-0.918-6.34-2.089-9.453-2.182c-1.565-0.047-2.266,1.309-3.636,1.454
	c-1.378,0.146-2.746-0.733-4.363-0.728c-2.256,0.01-3.139,0.756-5.09,1.455c-0.815-3.788,0.018-11-5.817-11.635
	c-1.64-1.572,0.602-2.48,0-5.09c-0.271-2.149-2.153-3.366-2.909-5.818c-1.053-3.414-0.093-7.956-2.182-10.906
	c-2.793-0.475-4.035,2.566-5.817,2.908c-2.452,0.471-2.069-0.145-5.09-1.453c-0.955-2.142,1.454-2.207,1.454-3.637
	c0-0.282-0.504-1.125-0.727-0.727c1.007-1.794,1.943-0.955,2.909-2.909c-1.596-7.179,2.729-11.459,4.363-17.452
	c-0.013-2.411-4.109-0.738-5.09-2.182c1.93-1.962-0.442-0.313-1.455-1.454c-0.477-0.537-0.307-1.632-0.727-2.181
	c-1.12-1.465-1.091-0.364-0.727-2.182c0.091-0.454-1.204-1.699-1.455-2.182c-1.001-1.931-2.357-4.663-3.635-6.544
	c-0.83-1.222-1.933-1.73-2.909-2.909c-0.477-0.575-0.237-1.527-0.728-2.181c-0.615-0.821-1.572-1.455-1.454-2.908
	c0.101-1.235,0.891-1.604,0.727-2.909c-0.514-4.101-2.662-6.42-4.363-9.453C120.805,170.721,122.533,163.48,123.443,155.423z"/>
</svg>
