<?xml version="1.0" encoding="utf-8"?>
<!-- Generator: Adobe Illustrator 15.0.0, SVG Export Plug-In . SVG Version: 6.00 Build 0)  -->
<!DOCTYPE svg PUBLIC "-//W3C//DTD SVG 1.1//EN" "http://www.w3.org/Graphics/SVG/1.1/DTD/svg11.dtd">
<svg version="1.1" id="Layer_1" xmlns="http://www.w3.org/2000/svg" xmlns:xlink="http://www.w3.org/1999/xlink" x="0px" y="0px"
	 width="432px" height="432px" viewBox="0 0 432 432" enable-background="new 0 0 432 432" xml:space="preserve">
<path fill-rule="evenodd" clip-rule="evenodd" fill="#959595" d="M293.751,252.746c-39.681,2.11-81.094-0.348-119.979-1.455
	c-0.556-8.797,1.124-15.358,0.727-23.995c-11.175-1.672-24.517-1.177-35.63-2.909c1.462-15.505,1.672-32.262,3.636-47.265
	c21.382,2.755,49.962,2.442,73.442,4.363c6.819,0.558,14.574-1.164,20.36,0c3.012,0.605,5.589,2.997,8.726,4.363
	c0.662,0.289,1.29,0.665,1.454,1.455c2.127,0.668,2.184-1.793,3.637-2.182c1.904-0.509,6.514,0.996,8.725-0.727
	c1.975,0.241,1.119,2.013,2.909,2.909c1.498,0.749,3.847,0,5.091,0.727c1.354,0.792,2.497,2.765,3.635,3.636
	c1.45,1.11,2.481,1.997,4.363,2.182c-1.476,1.729,1.386,3.918,1.453,5.09c0.081,1.364-0.666,2.876,1.455,5.09
	c0.61,0.636,0.771,1.897,1.454,3.636c0.753,1.919,2.095,3.582,1.454,7.999c0.049,2.133,2.223,2.142,2.909,3.636
	c0.69,1.052-0.146,2.928,0,3.636c0.36,1.743,1.282,1.627,1.454,2.909c0.213,1.588-0.77,1.888-0.727,2.908
	c0.006,0.163,0.697,1.309,0.727,2.182c0.039,1.146,0.099,0.934,0,2.182c-0.283,3.581,1.346,7.184,2.909,10.18
	c0.186,0.355,0.374,1.593,0.728,2.182C289.583,247.012,293.562,249.314,293.751,252.746z"/>
</svg>
