<?xml version="1.0" encoding="utf-8"?>
<!-- Generator: Adobe Illustrator 15.0.0, SVG Export Plug-In . SVG Version: 6.00 Build 0)  -->
<!DOCTYPE svg PUBLIC "-//W3C//DTD SVG 1.1//EN" "http://www.w3.org/Graphics/SVG/1.1/DTD/svg11.dtd">
<svg version="1.1" id="Layer_1" xmlns="http://www.w3.org/2000/svg" xmlns:xlink="http://www.w3.org/1999/xlink" x="0px" y="0px"
	 width="432px" height="432px" viewBox="0 0 432 432" enable-background="new 0 0 432 432" xml:space="preserve">
<path fill-rule="evenodd" clip-rule="evenodd" fill="#959595" d="M7584.993,7952.371c-2.896,0.229-1.97-3.363-4.362-3.637
	c-2.245,0.119-4.111-1.717-5.818,0c-1.91,0.383-1.43,2.15-1.453,3.637c-0.02,1.154,0.086,1.703,0,2.908
	c-0.184,2.57-0.534,5.35-0.729,7.999c-0.177,2.431,1.152,4.356,0.729,6.544c-0.357,1.839-3.287,2.127-2.182,4.363
	c-15.268-21.352-32.676-47.73-49.447-71.988c-2.633-3.809-5.953-7.903-8.725-12.361c-1.066-1.714-1.961-3.445-3.637-5.817
	c-0.322-0.457-1.188-1.024-1.453-1.454c-0.346-0.555-0.293-1.542-0.729-2.182c-0.738-1.084-2.128-1.76-2.908-2.908
	c-0.473-0.698-0.318-1.523-0.727-2.182c-1.375-2.211-4.422-5.543-6.545-8.727c-3.466-5.197-5.121-6.027-3.636-12.361
	c0.296-1.261,1.159-2.386,1.454-3.636c0.754-3.183,0.82-6.825,1.455-9.453c4.121-17.067,9.281-34.54,13.088-51.627
	c33.23,8.218,67.697,15.198,102.529,21.813c-5.363,28.692-10.137,59.279-15.998,87.986c-1.864,9.131-2.699,18.657-4.363,27.631
	c-0.821,4.431-2.08,8.692-2.908,13.09C7587.838,7944.209,7588.031,7948.869,7584.993,7952.371z"/>
<path fill-rule="evenodd" clip-rule="evenodd" fill="#959595" d="M249.993,286.371c-2.896,0.229-1.97-3.363-4.362-3.637
	c-2.245,0.119-4.111-1.717-5.818,0c-1.91,0.383-1.43,2.15-1.453,3.637c-0.02,1.154,0.086,1.703,0,2.908
	c-0.184,2.57-0.534,5.35-0.729,7.999c-0.177,2.431,1.152,4.356,0.729,6.544c-0.357,1.839-3.287,2.127-2.182,4.363
	c-15.268-21.352-32.676-47.73-49.447-71.988c-2.633-3.809-5.954-7.903-8.726-12.361c-1.065-1.714-1.96-3.445-3.636-5.817
	c-0.323-0.457-1.188-1.025-1.454-1.454c-0.345-0.555-0.292-1.542-0.728-2.182c-0.738-1.084-2.128-1.76-2.909-2.908
	c-0.473-0.698-0.318-1.524-0.727-2.182c-1.374-2.211-4.421-5.543-6.544-8.726c-3.466-5.198-5.121-6.028-3.636-12.362
	c0.296-1.261,1.159-2.386,1.454-3.636c0.754-3.182,0.82-6.825,1.455-9.453c4.122-17.068,9.282-34.541,13.089-51.627
	c33.23,8.217,67.697,15.199,102.529,21.814c-5.363,28.692-10.137,59.279-15.998,87.986c-1.864,9.131-2.699,18.657-4.363,27.631
	c-0.821,4.431-2.08,8.692-2.908,13.09C252.838,278.209,253.031,282.869,249.993,286.371z"/>
</svg>
