<?xml version="1.0" encoding="utf-8"?>
<!-- Generator: Adobe Illustrator 15.0.0, SVG Export Plug-In . SVG Version: 6.00 Build 0)  -->
<!DOCTYPE svg PUBLIC "-//W3C//DTD SVG 1.1//EN" "http://www.w3.org/Graphics/SVG/1.1/DTD/svg11.dtd">
<svg version="1.1" id="Layer_1" xmlns="http://www.w3.org/2000/svg" xmlns:xlink="http://www.w3.org/1999/xlink" x="0px" y="0px"
	 width="432px" height="432px" viewBox="0 0 432 432" enable-background="new 0 0 432 432" xml:space="preserve">
<path fill-rule="evenodd" clip-rule="evenodd" fill="#959595" d="M280.321,170.368c-1.073,8.927-0.874,18.462-1.454,27.632
	c-1.14,18.013-2.316,35.955-3.637,53.81c-0.644,8.709-0.964,17.252-2.908,25.449c-24.131-1.563-47.73-3.654-71.261-5.817
	c-2.498,0.937,1.93,4.723,0,5.091c-10.344-1.29-21.401-1.868-31.268-3.636c-2.134,2.471-1.088,8.122-2.908,10.907
	c-4.736-1.08-10.873-0.763-15.271-2.182c5.434-44.982,11.567-89.265,16.725-134.522c37.191,4.014,73.852,8.559,113.436,10.18
	L280.321,170.368z"/>
</svg>
