<?xml version="1.0" encoding="utf-8"?>
<!-- Generator: Adobe Illustrator 15.0.0, SVG Export Plug-In . SVG Version: 6.00 Build 0)  -->
<!DOCTYPE svg PUBLIC "-//W3C//DTD SVG 1.1//EN" "http://www.w3.org/Graphics/SVG/1.1/DTD/svg11.dtd">
<svg version="1.1" id="Layer_1" xmlns="http://www.w3.org/2000/svg" xmlns:xlink="http://www.w3.org/1999/xlink" x="0px" y="0px"
	 width="432px" height="432px" viewBox="0 0 432 432" enable-background="new 0 0 432 432" xml:space="preserve">
<path fill-rule="evenodd" clip-rule="evenodd" fill="#959595" d="M263.05,258.849c0.363,1.636-0.728,3.817-2.363,3.817
	c-3.091,2.728-3.313-6.964-3.453-4.363c-7.667-1.787-14.076-4.83-21.088-7.271c-1.873-1.055-1.525-4.934-2.908-6.543
	c-0.89-1.034-1.957-0.496-3.637-1.455c-1.03-0.589-1.716-2.105-2.181-2.182c-1.64-0.266-5.969,1.372-9.453,2.182
	c-2.975,0.691-6.715,1.576-9.453,2.182c-17.476,3.865-40.352,8.824-58.172,10.907c0.92-1.076-0.89-2.377-0.728-3.636
	c0.275-2.141,1.891-2.325,3.636-4.363c1.196-1.397,1.96-3.193,2.909-4.363c1.125-1.387,2.665-2.349,3.636-3.635
	c0.482-0.641,0.227-0.933,0.727-1.455c0.35-0.363,1.475-1.822,2.182-2.908c0.365-3.031-2.126-3.207-1.455-6.544
	c-1.332-0.85-3.301-1.062-3.635-2.909c-0.653-3.015,3.991-3.055,6.544-4.363c2.179-1.115,8.309-3.696,13.816-2.908
	c1.688,0.242,2.778,1.361,4.362,1.454c3.256-1.107,5.793-2.933,10.907-2.181c2.578-2.027,4.708-4.503,6.544-7.272
	c1.131-1.051,2.834-1.529,4.363-2.181c0.325-3.234-0.517-5.301-1.454-7.272c-0.184-2.608,2.184-2.664,2.182-5.09
	c-2.998,2.036-1.896-3.458-4.363,0c-1.513-3.258,4.657-6.62,6.545-9.453c-0.666-2.428,0.571-3.67,1.454-5.09
	c0.675-1.086,1.333-2.17,2.182-3.636c2.628-4.541,6.964-9.011,12.361-10.18c6.276-1.359,14.757-2.373,20.36-5.09
	c1.709,0.965,0.262,2.182,0.727,3.636c0.303,0.946,1.185,1.167,1.454,2.182c0.236,0.885-0.308,2.049,0,2.909
	c0.883,2.463,2.874,3.963,2.909,7.999c0.015,1.702-0.991,2.694-0.728,4.362c0.608,3.847,3.855,7.639,2.909,12.362
	c1.868,1.948,1.039-1.948,2.909,0c2.015,4.446,2.72,10.093,3.636,16.725c0.112,0.816,1.643,1.304,1.453,2.181
	c-0.781,3.63-1.32,9.796-0.728,15.271c0.148,1.354,1.109,2.172,1.455,3.636c0.923,3.901,0.948,9.296,2.182,13.815
	c1.335,4.896,1.765,4.605-1.455,7.999L263.05,258.849z"/>
<path fill-rule="evenodd" clip-rule="evenodd" fill="#959595" d="M283.047,255.395l-0.545,0.728
	c0.173,2.306-2.168,1.228-4.183,2.181c-0.369,0.176-0.419,1.289-0.727,1.455c-1.032,0.559-2.605,0.182-3.636,0.727
	c-0.883,0.468-1.436,1.771-2.182,2.182c-2.023,1.117-4.197,1.803-6.544,2.909c-2.008,0.946-3.696,3.427-6.545,2.182
	c-0.165-4.771,5.444-3.767,5.817-7.999c3.622-0.257,6.525-1.231,7.999-3.636c3.531,0.138,6.457-3.057,8.544-4.363
	c-0.182,1.272-3.734,3.896-0.363,3.272L283.047,255.395z"/>
</svg>
