<?xml version="1.0" encoding="utf-8"?>
<!-- Generator: Adobe Illustrator 15.0.0, SVG Export Plug-In . SVG Version: 6.00 Build 0)  -->
<!DOCTYPE svg PUBLIC "-//W3C//DTD SVG 1.1//EN" "http://www.w3.org/Graphics/SVG/1.1/DTD/svg11.dtd">
<svg version="1.1" id="Layer_1" xmlns="http://www.w3.org/2000/svg" xmlns:xlink="http://www.w3.org/1999/xlink" x="0px" y="0px"
	 width="432px" height="432px" viewBox="0 0 432 432" enable-background="new 0 0 432 432" xml:space="preserve">
<path fill-rule="evenodd" clip-rule="evenodd" fill="#959595" d="M220.416,241.296c0-0.243,0-0.485,0-0.728
	c-1.507,0.433-4.777-0.898-5.091,0.728c-3.342-2.962-12.592-5.011-7.271-13.089c2.054-0.205,2.004-1.016,4.363-2.182
	c-0.612-3.279,1.701-3.631,2.181-5.817c1.176-0.205,1.253,0.687,2.182,0.728c-1.577-1.514,0.089-2.351,0.728-3.637
	c0.126-1.864-1.9-0.807-2.909-2.181c-1.653-2.252,0.927-1.341-1.454-2.181c-0.29-0.102-1.807-0.445-2.182-0.728
	c-0.693-0.522-0.193-1.475-0.727-2.181c-1.025-1.357-3.14-1.118-3.636-2.909c0.115-3.134,2.82-5.145,0-7.271
	c0.208-2.188,2.201-3.406,2.908-5.09c0.782-1.863-0.236-4.01,1.454-5.09c0.825,0.138,0.404,0.729,0,0.727
	c2.355,0.448,2.674-0.23,5.817,0.727c-0.147-0.045,2.027,0.615,2.182,0.727c0.153,0.111-0.162,1.405,0,1.454
	c0.366,0.111,1.305-0.869,2.182-0.727c0.689,0.112,3.565,1.907,5.091,2.182c0.705,6.523-4.466,7.168-2.909,14.543
	c2.295,0.355,2.567-1.311,5.09-0.727c1.913,2.635,0.138,6.483,0,9.453c-0.134,2.889,1.375,5.901-0.728,7.271
	c0.929,0.349,1.844,0.509,0.728,2.909c-0.162,0.348-1.66,0.994-2.181,2.182c-0.965,2.195-0.024,5.135-2.909,5.816
	c0.601,2.965,0.111,2.504,0,5.817c-0.589-0.138-0.726-0.729-1.454-0.727"/>
</svg>
