<?xml version="1.0" encoding="utf-8"?>
<!-- Generator: Adobe Illustrator 15.0.0, SVG Export Plug-In . SVG Version: 6.00 Build 0)  -->
<!DOCTYPE svg PUBLIC "-//W3C//DTD SVG 1.1//EN" "http://www.w3.org/Graphics/SVG/1.1/DTD/svg11.dtd">
<svg version="1.1" id="Layer_1" xmlns="http://www.w3.org/2000/svg" xmlns:xlink="http://www.w3.org/1999/xlink" x="0px" y="0px"
	 width="432px" height="432px" viewBox="0 0 432 432" enable-background="new 0 0 432 432" xml:space="preserve">
<path fill-rule="evenodd" clip-rule="evenodd" fill="#959595" d="M204.503,247.766c-3.139-3.208-1.222-8.264-2.182-14.543
	c-0.217-1.419-1.471-3.324-1.454-4.363c0.072-4.354,3.07-9.426,2.908-13.815c-0.05-1.373-0.613-3.157-1.454-4.363
	c0.161-1.995,2.584-2.438,3.636-3.636c1.242-1.416,1.492-2.933,2.908-4.363c-2.422-5.435-2.983-12.685-0.728-18.906
	c1.821,0.091,2.277,1.388,2.909-0.727c3.659,8.677,6.184,18.499,9.453,28.359c0.48,1.451,0.858,3.453,1.455,5.09
	c0.432,1.188,1.83,2.451,2.181,3.636c0.479,1.622-0.011,3.622,0.728,5.091c2.195,4.367,7.919,5.918,6.544,11.634
	c-4.286,0.318-5.163,4.047-7.271,6.544C217.18,244.445,211.228,246.492,204.503,247.766z"/>
</svg>
