<?xml version="1.0" encoding="utf-8"?>
<!-- Generator: Adobe Illustrator 15.0.0, SVG Export Plug-In . SVG Version: 6.00 Build 0)  -->
<!DOCTYPE svg PUBLIC "-//W3C//DTD SVG 1.1//EN" "http://www.w3.org/Graphics/SVG/1.1/DTD/svg11.dtd">
<svg version="1.1" id="Layer_1" xmlns="http://www.w3.org/2000/svg" xmlns:xlink="http://www.w3.org/1999/xlink" x="0px" y="0px"
	 width="432px" height="432px" viewBox="0 0 432 432" enable-background="new 0 0 432 432" xml:space="preserve">
<path fill-rule="evenodd" clip-rule="evenodd" fill="#959595" d="M287.871,220.641c0.093,1.305-0.89,1.534-0.728,2.908
	c-1.751,0.298-1.58-1.328-3.636-0.727c-1.663,2.215-4.24,3.516-7.998,3.636c-1.329,1.095-1.711,3.138-2.909,4.362
	c-0.374-0.825-0.512-2.432-2.908-2.908c3.157,6.688-6.084,8.028-5.817,15.998c-0.954-0.258-1.144-1.28-2.181-1.455
	c0.029,2.394,1.228,3.62,0.726,6.545c-3.569,1.035-7.795,1.414-10.906,2.908c-1.233-0.522-1.598-1.998-2.909-2.908
	c-0.863-0.601-2.718-0.799-3.636-1.455c-0.959-0.686-1.873-2.16-2.908-2.908c-0.551-0.398-1.568-0.268-2.181-0.727
	c-0.355-0.267-0.392-1.219-0.728-1.455c-0.697-0.489-1.55-0.244-2.182-0.727c-1.046-0.8-2.792-2.521-4.363-3.637
	c-2.255-1.6-5.166-4.115-6.545-4.362c-1.442-0.259-6.425,0.968-9.452,1.454c-3.603,0.578-7.335,1.576-11.635,2.182
	c-0.188-2.721-1.685-4.132-2.908-5.817c-7.479-1.792-13.421-0.091-20.36,0.728c-3.064,0.361-6.199-0.047-8.726,0.727
	c-1.122,0.344-2.697,1.625-3.636,2.182c-0.771,0.458-1.576,0.164-2.182,0.728c-0.927,0.862-1.57,1.335-3.636,2.181
	c-1.058,0.435-0.778,0.08-1.454,0.728c-2.895,2.772-12.673,2.626-18.906,3.636c-2.284,0.371-4.793,0.922-7.271,1.455
	c0-1.939,0-3.879,0-5.818c2.287,0.35,2.843-1.035,4.363-1.454c-0.528-2.224,1.254-2.138,0.728-4.362
	c1.897-2.947,6.015-2.32,9.452-4.363c1.512-0.897,2.601-2.926,4.363-4.363c0.916-0.746,1.297-1.594,3.636-1.453
	c1.39-2.732,3.327-4.914,5.09-7.271c1.445,0.009,0.925,1.983,2.908,1.454c2.505-1.353,3.942-6.904,7.999-4.363
	c2.617-1.746,2.014-6.712,5.817-7.271c0.03-2.394,1.228-3.62,0.728-6.544c8.274,0.012,14.825-0.822,23.268-2.182
	c9.533-1.535,21.202-3.583,32.723-5.817c5.217-1.013,12.632-2.976,19.633-4.362c4.505-0.894,9.069-1.297,13.089-2.182
	c3.902-0.859,6.246-2.017,10.907-2.909c5.776-1.106,7.598-0.258,10.18,5.091c-0.955-0.258-1.143-1.281-2.182-1.455
	c-0.031,1.244,0.541,1.883,1.455,2.182c-1.782,1.945-3.294-2.963-5.817-0.727c0.229,1.709,3.446,0.431,2.908,2.908
	c-1.901,0.462-2.229,0.163-4.363,1.454c-0.298,0.903-0.829,2.114-2.181,3.636c-0.844-0.61-1.949-0.959-3.636-0.727
	c-0.76-1.664-0.462-4.387-1.454-5.818c-2.789,3.55,1.667,6.064,1.454,9.453c2.188,0.346,3.169-0.311,4.362-1.454
	c1.533-1.468,0.699,0.724,2.909,0c1.622-0.53,2.729-1.729,5.09-2.181c0.557,1.857,1.071,3.343-0.728,4.362
	c2.166,1.046,0.046,1.832,1.455,3.636c3.427-0.412,1.29-5.266,2.182-6.545c1.032,0.063,2.059,0.121,2.182-0.727
	c1.972,0.936,2.203,3.613,2.182,6.544c-0.728,0-1.455,0-2.182,0c-0.499,1.025-1.523,5.024-2.909,7.272
	c-2.443-0.225-6.303,0.971-5.817-2.182c-0.852,0.117-0.613,1.326-0.728,2.182c-2.681-0.138-1.416-2.373-2.182-2.909
	c-2.532-0.352-0.813,3.548-2.908,3.636c-3.116,0.502-5.519-2.115-7.271-0.727c2.339,2.751,7.754,2.426,11.635,3.635
	c0.501,1.955-1.503,1.406-2.182,2.182c-0.898,2.354,2.353,0.556,1.454,2.909c-1.282,0.656-2.252,1.626-2.908,2.908
	c-1.952-0.956-3.865-1.952-5.817-2.908c-1.188,1.26,1.488,3.801,3.636,4.362c2.755,0.721,6.016-2.303,7.999-0.727
	c-1.083-2.225,0.726-2.32,0.727-0.728"/>
</svg>
