<?xml version="1.0" encoding="utf-8"?>
<!-- Generator: Adobe Illustrator 15.0.0, SVG Export Plug-In . SVG Version: 6.00 Build 0)  -->
<!DOCTYPE svg PUBLIC "-//W3C//DTD SVG 1.1//EN" "http://www.w3.org/Graphics/SVG/1.1/DTD/svg11.dtd">
<svg version="1.1" id="Layer_1" xmlns="http://www.w3.org/2000/svg" xmlns:xlink="http://www.w3.org/1999/xlink" x="0px" y="0px"
	 width="432px" height="432px" viewBox="0 0 432 432" enable-background="new 0 0 432 432" xml:space="preserve">
<path fill-rule="evenodd" clip-rule="evenodd" fill="#959595" d="M268.029,181.963c0.361,1.992,0.509,3.431,0.728,5.09
	c0.312,2.357-0.171,4.289,0,8.726c0.024,0.648,0.901,1.11,0.728,2.181c-0.295,1.813,0.436,6.166,1.454,9.453
	c0.807,2.605,2.463,4.696,2.909,7.272c0.232,1.356-0.729,2.62-0.729,2.908c0.004,1.164,1.295,5.369,1.455,7.998
	c0.094,1.548-0.77,1.924-0.727,2.909c0.018,0.417,0.332,5.591,0.727,7.999c0.199,1.221,0.246,3.049,0.727,4.363
	c0.317,0.865,1.926,1.998,2.182,2.908c0.824,2.936,0.319,5.842,1.454,8.726c-41.62,1.869-84.301-1.503-124.342-3.636
	c2.262-23.673,2.495-49.375,5.817-71.988C194.487,180.366,232.865,179.559,268.029,181.963z"/>
</svg>
