<?xml version="1.0" encoding="utf-8"?>
<!-- Generator: Adobe Illustrator 15.0.0, SVG Export Plug-In . SVG Version: 6.00 Build 0)  -->
<!DOCTYPE svg PUBLIC "-//W3C//DTD SVG 1.1//EN" "http://www.w3.org/Graphics/SVG/1.1/DTD/svg11.dtd">
<svg version="1.1" id="Layer_1" xmlns="http://www.w3.org/2000/svg" xmlns:xlink="http://www.w3.org/1999/xlink" x="0px" y="0px"
	 width="432px" height="432px" viewBox="0 0 432 432" enable-background="new 0 0 432 432" xml:space="preserve">
<path fill-rule="evenodd" clip-rule="evenodd" fill="#959595" d="M255.343,201.025c-1.083,0.855-2.053,1.825-2.908,2.909
	c4.044,2.127,1.336,8.763,0.728,15.998c-0.193,2.281,0.33,4.746,0,5.816c-1.363,4.405-5.593,6.035-6.545,8.727
	c-1.617-1.201-3.943,0.154-4.363-0.728c-1.215,0.233,0.509,1.923-0.728,3.636c-0.245,0.341-2.069,0.492-2.181,0.727
	c-0.666,1.402,1.024,4.275-1.455,4.363c-0.357,2.283,2.507,1.922,0.728,3.636c-1.983,0.53-1.464-1.444-2.909-1.454
	c-1.914,1.265-3.57,3.209-3.635,6.545c-0.027,1.382,1.113,2.367,0.728,3.635c-0.431,1.412-0.893,1.117-1.455,2.182
	c-0.415,0.785-0.138,2.264-0.727,2.908c-0.609,0.668-1.659-0.988-2.182-0.727c-0.097,0.049,1.308,1.521,0,1.455
	c-3.444-0.177-2.499-2.713-6.545-3.637c-0.312-1.385-1.566-1.826-1.454-3.635c-2.787,0.605-4.408,2.378-5.816,4.362
	c-2.61,0.428-3.519-0.845-5.091-1.454c-1.891,0.291-2.192,2.17-4.363,2.182c-1.872-2.228-4.254-3.658-7.999-2.182
	c-1.011-2.14-3.55-2.752-3.635-5.817c-3.909-1.426-7.175-0.616-10.181-1.454c-1.404-21.137-4.949-40.134-6.544-61.081
	c6.194-0.423,11.724-1.181,16.725-2.181c1.821-0.365,3.969-1.495,5.816-1.455c0.067,0.001-0.083,1.371,0,1.455
	c-0.119-0.12,2.173-0.887,2.909-0.728c2.396,0.519,4.962,2.411,7.271,2.909c-0.257,0.955-1.28,1.144-1.454,2.181
	c2.264-0.26,5.189-0.11,3.636-0.727c2.033-1.777,3.551,0.875,5.816,0.727c3.284-0.214,5.468-3.028,7.999-4.362
	c4.017,1.692,6.411-0.978,8.727-3.636c1.114-1.28,1.706-2.559,2.908-3.636c1.965-1.76,4.707-2.529,6.544-3.636
	c2.293-1.381,3.8-3.471,6.545-3.636C251.32,181.779,253.165,191.568,255.343,201.025z"/>
</svg>
