<?xml version="1.0" encoding="utf-8"?>
<!-- Generator: Adobe Illustrator 15.0.0, SVG Export Plug-In . SVG Version: 6.00 Build 0)  -->
<!DOCTYPE svg PUBLIC "-//W3C//DTD SVG 1.1//EN" "http://www.w3.org/Graphics/SVG/1.1/DTD/svg11.dtd">
<svg version="1.1" id="Layer_1" xmlns="http://www.w3.org/2000/svg" xmlns:xlink="http://www.w3.org/1999/xlink" x="0px" y="0px"
	 width="432px" height="432px" viewBox="0 0 432 432" enable-background="new 0 0 432 432" xml:space="preserve">
<path fill-rule="evenodd" clip-rule="evenodd" fill="#959595" d="M284.296,249.63c-2.336-0.64-0.997,2.397-2.909,2.182
	c-2.287,0.349-2.842-1.036-4.363-1.454c-3.262,0.069-5,3.718-7.271,0.727c-2.435,1.443-4.943,2.814-7.272,4.363
	c-2.293-0.857-4.039-2.262-5.816-3.636c-1.715-1.779-1.354,1.086-3.635,0.728c-0.232-1.708-2.252-1.628-2.91-2.909
	c-1.348,1.804-4.207,2.095-3.635,5.817c-2.28-0.503-0.948-1.939-0.728-3.636c-2.09-0.15-3.694,0.185-4.363,1.454
	c-1.723-1.186-2.753-3.064-5.089-3.636c-2.352-1.986-2.064,3.32-5.818,2.182c1.235-4.386-4.422-1.88-2.908-6.544
	c-3.029-0.121-6.068-0.252-7.271,1.454c-5.056-1.599-9.996-3.433-14.543-3.636c1.019-4.17-2.669-3.633-2.909-6.545
	c-1.479,3.236-2.422,1.455-4.362,1.455c-0.461,0-0.892,0.699-0.728,0.727c-3.106-0.508-4.335-4.476-7.271-5.09
	c0.167-15.104,0.813-29.729,1.455-44.355c-4.433-4.162-11.616-1.63-18.179-2.182c-11.065-0.933-27.96-2.207-39.812-2.728
	c0.727-4.726,0.727-7.09,1.272-10.362c50.987,2.822,104.312,3.307,158.518,2.909c-1.228,13.809,3.444,25.185,4.363,37.812
	c0.979,13.447-0.721,26.806,0,42.175C292.328,255.656,289.101,251.854,284.296,249.63z"/>
</svg>
