<?xml version="1.0" encoding="utf-8"?>
<!-- Generator: Adobe Illustrator 15.0.0, SVG Export Plug-In . SVG Version: 6.00 Build 0)  -->
<!DOCTYPE svg PUBLIC "-//W3C//DTD SVG 1.1//EN" "http://www.w3.org/Graphics/SVG/1.1/DTD/svg11.dtd">
<svg version="1.1" id="Layer_1" xmlns="http://www.w3.org/2000/svg" xmlns:xlink="http://www.w3.org/1999/xlink" x="0px" y="0px"
	 width="432px" height="432px" viewBox="0 0 432 432" enable-background="new 0 0 432 432" xml:space="preserve">
<path fill-rule="evenodd" clip-rule="evenodd" fill="#959595" d="M141.654,247.401c-1.812-4.747-0.346-11.128,2.182-13.815
	c-3.353-6.893,3.177-9.804,3.636-15.271c1.598,2.818,2.935-4.326,3.636,0c2.706-2.436-0.668-3.155,0.727-5.817
	c1.732-0.449,1.194-3.168,4.363-2.181c0.527-2.224-1.254-2.139-0.728-4.363c3.096-3.448,2.819-10.27,6.544-13.089
	c-0.734-7.938,6.36-13.873,7.271-22.542c1.076-0.842,1.833-0.842,2.909,0c-0.153-0.958-1.418-1.139-1.455-2.182
	c-0.046-1.325,1.097-1.381,1.455-2.908c0.288-1.229-0.225-2.743,0-3.636c0.686-2.729,2.22-5.017,2.182-7.999
	c2.353-0.898,0.556,2.353,2.909,1.454c1.889-2.075,5.967-0.192,5.817,2.182c3.591-0.682,4.932,0.885,6.544,2.181
	c-0.526,0.932,0.67,1.187,0.727,1.455c1.394,6.58-3.048,8.85,2.182,12.362c0.866,0.581,2.008,0.155,2.909,0.727
	c0.647,0.412,0.424,1.277,1.454,1.455c1.421,0.245,3.722,0.262,5.09,0c1.488-0.285,2.001-1.47,3.636-1.455
	c4.207,0.041,7.523,1.623,10.18,4.363c2.787,1.351,5.729-0.325,8.726,0c1.399,0.152,2.888,1.411,4.362,1.454
	c5.134,0.149,10.192-1.499,15.271-1.454c1.714,0.015,4.127,0.622,5.816,0.727c1.83,0.115,3.467-0.2,5.09,0
	c5.186,0.64,10.278,2.598,15.271,3.636c5.274,1.096,10.279,2.209,15.997,2.908c0.885,2.158,1.853,3.586,2.908,5.09
	c1.102,1.568,2.859,2.479,2.909,4.362c0.07,2.647-2.993,4.974-5.091,7.999c-0.918,1.324-1.35,3.021-2.182,4.363
	c-0.931,1.504-3.534,2.098-2.181,4.363c-4.072,3.199-8.851,5.692-8.726,13.088c-0.111,2.293,2.948,1.415,3.635,2.909
	c-0.426,1.812-0.174,3.817-0.908,5.636c-0.758,1.874-2.428,3.593-2.908,5.816c-1.408,6.516-2.236,13.518-3.637,20.361
	c-1.348,6.595-3.28,13.181-4.362,19.633c-34.396-6.441-68.153-15.762-100.165-24.542c-1.024-0.28-1.753-0.589-2.182-0.728
	C156.109,251.578,148.384,251.072,141.654,247.401z"/>
</svg>
