<?xml version="1.0" encoding="utf-8"?>
<!-- Generator: Adobe Illustrator 15.0.0, SVG Export Plug-In . SVG Version: 6.00 Build 0)  -->
<!DOCTYPE svg PUBLIC "-//W3C//DTD SVG 1.1//EN" "http://www.w3.org/Graphics/SVG/1.1/DTD/svg11.dtd">
<svg version="1.1" id="Layer_1" xmlns="http://www.w3.org/2000/svg" xmlns:xlink="http://www.w3.org/1999/xlink" x="0px" y="0px"
	 width="432px" height="432px" viewBox="0 0 432 432" enable-background="new 0 0 432 432" xml:space="preserve">
<path fill-rule="evenodd" clip-rule="evenodd" fill="#959595" d="M265.235,191.213c-2.098,3.235-2.318,8.347-5.09,10.907
	c-0.284,2.286,1.531,1.228,1.454,3.636c-0.031,0.959-1.585,2.304-1.454,2.908c0.447,2.068,1.345,3.008,2.908,4.363
	c0.515,0.446,0.271,0.974,0.727,1.455c0.653,0.688,1.349,0.915,2.182,1.454c1.282,0.83,2.76,3.187,5.091,3.636
	c-0.256,2.41-2.178,3.154-3.636,4.363c-1.263,1.404-1.647,3.686-2.909,5.09c-1.244-0.032-1.883,0.54-2.182,1.454
	c-1.454,0-2.908,0-4.362,0c-1.406,1.017-2.156,2.691-2.908,4.362c-27.639,5.812-55.76,11.14-83.623,16.725
	c-2.496-9.668-5.146-26.325-7.271-39.266c-0.802-4.876-2.813-10.738-2.182-13.089c0.295-1.102,0.953-1.918,2.182-2.909
	c0.57-0.461,1.533-0.242,2.181-0.727c1.376-1.032,3.97-4.68,6.544-5.09c0.232,1.707,1.149,2.729,0.728,5.09
	c16.577-2.5,35.829-6.392,53.809-10.18c1.661-0.351,2.773-1.113,4.363-1.455c2.952-0.634,6.758-0.686,10.181-1.454
	c3.589-0.806,6.378-2.555,8.726-2.182c2.088,0.332,3.044,3.329,5.09,2.182C257.788,186.541,258.776,191.612,265.235,191.213z"/>
</svg>
