<?xml version="1.0" encoding="utf-8"?>
<!-- Generator: Adobe Illustrator 15.0.0, SVG Export Plug-In . SVG Version: 6.00 Build 0)  -->
<!DOCTYPE svg PUBLIC "-//W3C//DTD SVG 1.1//EN" "http://www.w3.org/Graphics/SVG/1.1/DTD/svg11.dtd">
<svg version="1.1" id="Layer_1" xmlns="http://www.w3.org/2000/svg" xmlns:xlink="http://www.w3.org/1999/xlink" x="0px" y="0px"
	 width="432px" height="432px" viewBox="0 0 432 432" enable-background="new 0 0 432 432" xml:space="preserve">
<path fill-rule="evenodd" clip-rule="evenodd" fill="#959595" d="M280.059,258.544c-3.878-4.605-9.834-5.438-12.483-7.878
	c-2.16,0.925-5.245,0.251-7.998,0.728c-2.062,0.356-3.016,0.589-4.363,1.454c-1.239-0.654-3.435-1.152-5.091-2.182
	c-1.445-0.898-2.469-2.623-3.635-2.908c-3.076-0.751-7.004,0.142-10.18,0c-26.858-1.195-60.353-2.047-85.805-4.363
	c0.5-24.466,3.688-46.243,5.09-69.806c39.533,3.126,80.74,4.58,123.615,4.363c0.398,4.518-3.842,4.397-4.361,7.999
	c1.197,1.226,1.579,3.268,2.908,4.362c0.932,1.25,3.461,0.901,3.635,2.909c0.447,13.368-0.918,28.55,0.728,40.72
	c0.308,3.606-2.179,0.411-2.909,2.182c-0.422,1.677,1.455,2.154,1.455,3.636c0,1.28-0.938,1.502,0,3.636
	c0.487,1.111,0.833,4.803,0,7.271c-0.386,1.144-2.456,3.39-0.848,4.969L280.059,258.544z"/>
</svg>
