<?xml version="1.0" encoding="utf-8"?>
<!-- Generator: Adobe Illustrator 15.0.0, SVG Export Plug-In . SVG Version: 6.00 Build 0)  -->
<!DOCTYPE svg PUBLIC "-//W3C//DTD SVG 1.1//EN" "http://www.w3.org/Graphics/SVG/1.1/DTD/svg11.dtd">
<svg version="1.1" id="Layer_1" xmlns="http://www.w3.org/2000/svg" xmlns:xlink="http://www.w3.org/1999/xlink" x="0px" y="0px"
	 width="432px" height="432px" viewBox="0 0 432 432" enable-background="new 0 0 432 432" xml:space="preserve">
<path fill="#959595" d="M261.776,200.374c2.081-2.295-2.768-2.068-2.908-4.363c-1.267-0.055-2.261,0.162-2.909,0.728
	c2.024-2.385-0.438-1.474-1.454-2.182c-0.557-0.389-0.247-1.729-0.727-2.182c-0.198-0.186-2.203-0.963-2.908-1.454
	c-3.146-2.187-1.848-2.218-4.363-1.454c1.171-1.481,0.252-1.578-0.728-2.182c-0.485-0.299-1.13-1.322-1.454-1.455
	c-0.516-0.21-1.745,0.33-2.182,0c-0.152-0.114-0.705-2.175-0.728-2.181c-1.467-0.379-2.521,2.245-2.908,0.727
	c0.791-0.174,1.746-1.197,0.727-1.454c-1.355,0.077-3.517,0.441-5.089,0.728c-2.494,0.452-5.819,0.143-7.999,0.727
	c-0.462,0.124-1.423,1.321-2.182,1.454c0.094-0.016-0.79-0.755-1.454-0.727c-1.748,0.074-3.7,1.057-5.091,1.454
	c-0.566-2.826-1.11-5.677-3.635-6.544c-0.162,0.564-0.021,1.434-0.728,1.454c-1.293-3.601-7.857-2.04-13.089-1.454
	c-4.744,0.531-9.223,1.66-13.089,1.454c0.063,2.402-2.824,1.411-2.908,1.454c-0.547,0.282,0.287,1.45-0.728,1.454
	c-0.157,0.001-0.61-1.298-1.454-0.727c-0.088,2.63-1.411,2.089-5.816,2.908c-0.029,2.099-4.11,1.72-2.182,3.636
	c-2.763,0.389-3.468,2.835-4.363,5.09c0.53,1.479,2.188,2.97,3.636,1.455c-0.092,3.97,5.818,1.938,7.271,4.363
	c0.174-0.791,1.197-1.746,1.454-0.728c-1.735,0.294-0.874,0.474-0.728,2.181c-0.028-0.336,0.667-1.039,0.728-0.727
	c0.173,0.891-0.966,1.01-0.728,2.182c-0.022-0.109,1.358,1.327,1.455,1.454c1.678,2.194,2.207-0.146,1.454,2.181
	c2.314,0.775,2.821,3.84,5.09,5.091c0.49,0.271,1.761-0.354,2.182,0c1.116,0.937,3.103,3.063,3.636,3.636
	c0.348,0.373,0.349,1.901,0.728,2.182c1.235,0.916,3.529,0.068,4.362,1.454c0.175-0.79,1.197-1.746,1.454-0.728
	c-0.365,0.087-0.958,0.47-1.262,0.9c0.506,0.241,1.789,2.682,1.989,2.735c-0.257-0.068,0.462-1.216,0.727-0.727
	c0.304,0.557-0.815,1.001-0.727,1.454c0.123,0.623,2.82,1.549,1.454,2.908c2.267-1.285,1.764,1.451,2.909,2.182
	c1.013,0.647,2.123-0.024,2.908,0.728c1.146,1.099,2.994,2.022,3.636,2.908c-0.163-0.226-1.008,0.844-0.727,1.454
	c0.544,1.181,1.709,1.443,2.182,2.909c0.396,1.229-0.413,2.472,0.727,3.636c3.802-1.576,0.083,2.597,4.362-0.728
	c-3.417,3.132,3.39,4.837,2.182,10.181c2.258-0.075,2.075,2.288,5.091,1.455c0.998-1.658-1.875-2.735,0-2.909
	c0.395,1.471,0.719-0.55,1.454-0.728c0.787-0.191,1.153,1.146,1.454,0c-2.048-0.89-4.444-5.215-2.908-7.271
	c0.153,0.816,0.807,1.133,1.454,1.454l0.727-0.727c1.097-4.031,4.269-1.513,7.999-2.909c-0.13-3.694,2.456-0.159,2.908-2.908
	c-0.402,0.002-0.825-0.589,0-0.728c1.091,2.403,1.778-1.511,3.636-0.728c-0.789-1.633-1.688-3.158-2.182-5.09
	c2.944-1.005,2.301,1.578,4.363,1.455c-0.126-1.822,1.629-1.766,2.182-2.909c0.459-0.493-0.729-3.161,0-2.909
	c2.258,0.781-1.702-1.227,1.454-2.181c-1.922,1.857,0.996,1.443,2.909,1.454c0.12-0.781-0.86-2.485,0-2.182
	c1.413,0.5,0.432-0.822,0-2.182c0.967,0.945,2.705,0.959,2.908-0.727c-1.174-2.126-3.748,1.159-4.362-0.728
	c3.453,0.4,1.227-4.876,2.182-5.09c0.003,1.317,2.022-1.266,2.907-1.454c-0.402,0.002-0.824-0.59,0-0.728
	c-0.311,0.282,0.57,1.072,0.728,0.728c0.784-1.714,1.314-4.912,2.182-5.817c0.493-0.515,0.248-0.827,0.727-1.454
	c1.445-1.892,3.726-1.825,4.363-4.363C262.957,199.615,262.361,199.989,261.776,200.374z"/>
</svg>
