<?xml version="1.0" encoding="utf-8"?>
<!-- Generator: Adobe Illustrator 15.0.0, SVG Export Plug-In . SVG Version: 6.00 Build 0)  -->
<!DOCTYPE svg PUBLIC "-//W3C//DTD SVG 1.1//EN" "http://www.w3.org/Graphics/SVG/1.1/DTD/svg11.dtd">
<svg version="1.1" id="Layer_1" xmlns="http://www.w3.org/2000/svg" xmlns:xlink="http://www.w3.org/1999/xlink" x="0px" y="0px"
	 width="432px" height="432px" viewBox="0 0 432 432" enable-background="new 0 0 432 432" xml:space="preserve">
<path fill-rule="evenodd" clip-rule="evenodd" fill="#959595" d="M145.46,214.004c2.179,0.139,0.607-2.789,0.727-2.908
	c0.145-0.146,1.394,0.169,1.454,0c0.391-1.089-1.28-2.454,0.728-3.637c9.447-0.248,18.101-1.289,26.905-2.181
	c-0.398-1.057,0.85-3.759-0.728-3.636c2.974-0.186,7.841-0.949,12.361-1.455c9.321-1.041,19.159-1.504,29.086-2.182
	c5.264-0.358,10.599-1.778,15.997-2.181c6.607-0.493,13.701-0.62,20.36-1.454c3.637-0.456,7.396-1.81,10.907-2.182
	c10.545-1.119,22.018-2.082,31.268-5.09c1.62,0.742-0.951,3.343,0,5.816c-2.976,0.66-3.705,3.566-4.362,6.545
	c-4.258-1.91-7.11,2.123-8.727,5.09c-1.986-0.37-1.095-2.097-2.181-2.182c-2.096-0.163-2.389,4.615-4.363,2.909
	c-0.807,1.375-0.927,3.435-1.454,5.09c-3.499-1.104-6.296,4.214-8.727,6.544c-6.282-0.223-9.779,2.34-10.18,7.999
	c-1.521,0.419-2.075,1.803-4.363,1.454c0,2.182,0,4.363,0,6.545c-19.234,1.639-38.3,4.445-57.444,5.816
	c-13.603,0.975-26.818,3.459-40.721,4.363c-5.19,0.337-10.571,0.424-15.997,0.727c0.203-1.493,1.942-1.45,2.909-2.181
	c-1.165-3.433-1.235-5.255,0.121-7.999c0,0-1.403-1.076-0.97-1.454c1.939-1.696,2.256-0.86,3.029-2.182
	c0.857-1.465-0.598-2.549,0-3.636c0.134-0.242,1.92-0.484,2.182-0.728c0.608-0.566,0.556-1.972,1.455-2.908
	c1.533-1.603-0.589-1.331-0.728-2.909c-0.2-2.258,2.817-2.885,2.181-5.09"/>
</svg>
