<?xml version="1.0" encoding="utf-8"?>
<!-- Generator: Adobe Illustrator 15.0.0, SVG Export Plug-In . SVG Version: 6.00 Build 0)  -->
<!DOCTYPE svg PUBLIC "-//W3C//DTD SVG 1.1//EN" "http://www.w3.org/Graphics/SVG/1.1/DTD/svg11.dtd">
<svg version="1.1" id="Layer_1" xmlns="http://www.w3.org/2000/svg" xmlns:xlink="http://www.w3.org/1999/xlink" x="0px" y="0px"
	 width="432px" height="432px" viewBox="0 0 432 432" enable-background="new 0 0 432 432" xml:space="preserve">
<path fill-rule="evenodd" clip-rule="evenodd" fill="#959595" d="M275.029,298.241c-2.195-0.979-5.803-0.979-7.999,0
	c0.839,1.716,1.952,0.689,2.909,1.454c0.727,0.582,1.21,1.621,2.182,2.909c-0.174,2.978-2.206,4.096-2.182,7.271
	c-4.343,0.95-5.418-1.368-7.998-2.182c-0.12,2.302,1.933,2.431,1.454,5.091c2.618,0.254,3.504,1.112,5.816,0
	c-0.95,1.959-0.863,4.951-2.907,5.817c-1.496,3.307,1.579,4.447,2.18,6.545c0.563,1.959,0.211,4.544,0.728,6.542
	c0.44,1.699,1.796,2.812,2.182,4.363c0.647,2.608-0.55,5.571,1.454,7.272c0.289,1.742-3.312-0.404-2.182,2.181
	c-3.531-0.043-4.617-4.2-7.998-5.09c-3.172-0.834-6.395,0.595-10.907,0c-2.561-2.045-4.31-4.899-9.452-4.363
	c-0.926-2.953-4.109-3.646-8-3.636c-0.76-0.321-0.268-1.521-0.727-2.182c-0.129-0.185-1.455-0.728-1.454-0.726
	c-0.598-1.536-0.228-3.591-0.728-5.09c-1.095-3.284-3.184-5.791-5.09-7.999c-0.499-1.517,0.752-1.932,0.727-2.909
	c-0.038-1.585-1.345-1.822-1.454-2.908c-0.175-1.75,0.996-3.644,0-5.817c-0.79-2.118-2.97-2.848-5.09-3.637
	c-1.82-3.996-4.773-6.86-6.544-10.905c-0.661-1.279-2.547-1.331-3.635-2.182c-0.495-1.656-1.067-2.715-1.455-5.817
	c-0.012-0.098-0.369-1.95-1.455-3.636c-0.178-0.277-1.345-0.486-1.454-0.728c-0.177-0.395,0.205-1.077,0-1.454
	c-0.674-1.245-1.018-2.421-2.181-3.637c-0.609-0.635-0.745-3.284-1.455-5.09c-1.281-3.26-4.131-5.077-6.544-7.999
	c-1.054-1.275-3.187-3.615-5.09-5.09c-0.311-0.239-1.097-0.382-0.727,0c-2.375-2.453-2.575-3.909-4.363-5.816
	c-3.055,0.767-7.615,0.419-12.361-0.727c-2.57-0.623-5.5-3.27-7.271,0.727c-2.437-0.974-5.209,0.436-6.544,2.182
	c-1.145,1.496-2.211,4.924-3.636,7.997c-1.242,2.681-4.155,5.315-6.544,7.272c-4.125,0.108-7.178-2.991-10.18-5.091
	c-0.958-0.669-1.548-1.839-2.182-2.182c-1.567-0.843-3.646-0.44-5.09-1.454c-3.015-2.116-4.524-6.614-8.726-7.27
	c-0.126-4.184-4.893-6.295-3.636-11.636c0.394-1.675,0.523-3.164-0.728-5.817c-0.131-0.278-0.411-1.654-0.727-2.182
	c-0.148-0.248-1.38-0.528-1.454-0.727c-0.296-0.799,0.408-2.171,0-2.909c-0.67-1.211-1.373-2.022-2.181-2.908
	c-1.129-1.236-2.234-2.64-3.636-3.637c-1.061-0.751-3.139-1.013-4.363-2.182c-0.895-0.852-1.405-2.559-2.181-3.636
	c-0.857-1.187-2.024-1.814-2.909-2.906c-3.144-3.883-5.083-7.405-10.18-9.454c-0.122-2.06-1.333-3.03-1.455-5.09
	c-1.801-2.806-6.374-2.836-5.817-7.999c22.852,2.599,46.284,4.617,70.534,5.817c0.955-0.258,1.144-1.28,2.181-1.454
	c2.029-36.025,4.809-71.301,7.272-106.892c18.434,1.441,38.107,1.644,56.717,2.908c0.069,15.825-0.204,31.307-1.454,45.811
	c3.334,0.787,4.837,3.404,7.271,5.091c3.652,0.478,5.869-0.914,7.998,0c1.212,0.97,0.243,4.119,1.455,5.09
	c5.611,0.206,10.626,1.007,13.815,3.636c2.753-1.749,3.013-1.979,7.271-1.454c-0.337,2.276,0.632,3.245,2.909,2.908
	c-0.232,1.687,0.117,2.792,0.727,3.636c2.654-0.011,3.266-2.067,5.091-2.908c1.753,0.67,2.965,1.882,3.635,3.636
	c2.09,0.15,3.694-0.185,4.363-1.454c1.637,0.302-0.108,3.987,2.182,3.636c1.647,0.089,1.933-2.335,2.909-3.636
	c0.264-0.353,0.918-0.624,0.727-1.455c2.803,1.036,3.541,3.016,7.271,1.455c0.966,2.427,4.114,2.672,5.816,4.362
	c1.373-1.535,3.643-2.176,5.091-3.636c2.13-0.653,2.233-0.653,4.363,0c1.813-0.367,2.988-1.374,4.362-2.182
	c1.368,0.827,5.617,3.193,7.271,0c3.131-0.919,5.436,3.421,7.272,4.363c0.577,0.297,1.593-0.278,2.181,0
	c0.273,0.13,0.521,1.383,0.727,1.454c2.285,0.792,5.673-0.145,6.545,2.908c2.057-0.896,4.488-0.896,6.545,0
	c0.945,11.901,0.966,24.728,1.454,37.086c1.122,1.785,2.92,2.896,4.363,4.362c-0.364,2.287,1.584,2.842,0,4.363
	c0.479,0.853,0.782,1.905,1.453,2.909c0.522,0.779,1.833,1.471,2.182,2.182c0.283,0.573-0.313,1.622,0,2.182
	c1.356,2.419,3.222,2.796,2.909,7.27c-0.004,0.06-0.857,0.077-0.728,0.728c0.106,0.53,0.674,2.673,0.728,4.363
	c-3.403,3.587-4.365,11.547-2.182,16.725c-1.622,2.531-7.527,5.923-3.636,9.454c-1.874,1.099-3.275,0.835-5.09,1.452
	c-1.954,0.665-3.531,2.527-5.091,2.908c-1.172,0.288-1.26-0.811-2.181-0.727c-0.654,0.062-3.343,1.058-5.091,0.727
	c1.002-0.937,0.721-3.157,0.728-5.088c-2.56-2.034-3.151,1.914-4.362,2.18c-1.451,0.319-1.585-2.856-2.909-0.728
	c-0.003,3.862,1.596,5.466,2.909,9.454c-2.362,0.547-2.577,3.241-5.091,3.636c-0.179,6.365-6.527,6.562-9.453,10.181
	c-2.739-0.56-3.476,0.886-5.816,0.727c-0.987,0.225-0.603,1.821-0.728,2.909c-1.606,0.35-1.043-1.323-2.182-1.454
	c0.62,0.07-2.722,1.641-3.636,0.727c-0.144-0.144,0.169-1.395,0-1.454c-1.384-0.49-4.015,2.361-4.362-1.454
	c-2.132,0.614,0.434,2.34,0,3.636c-3.153,0.486-1.675-3.658-5.091-2.909c-1.798,1.651,4.141,4.625,1.454,7.272
	c0.646-0.564,1.643-0.783,2.908-0.728c-2.188,3.406-5.126,2.772-7.27,0c-1.668,2.069,1.271,4.979-1.455,6.545
	c-1.006-3.128-4.875,2.409-7.271,0c0.813,2.276-0.727,4.016,2.182,5.088c-0.206-1.174,0.687-1.25,0.727-2.182
	C279.023,294.545,274.715,295.938,275.029,298.241z"/>
</svg>
