<?xml version="1.0" encoding="utf-8"?>
<!-- Generator: Adobe Illustrator 15.0.0, SVG Export Plug-In . SVG Version: 6.00 Build 0)  -->
<!DOCTYPE svg PUBLIC "-//W3C//DTD SVG 1.1//EN" "http://www.w3.org/Graphics/SVG/1.1/DTD/svg11.dtd">
<svg version="1.1" id="Layer_1" xmlns="http://www.w3.org/2000/svg" xmlns:xlink="http://www.w3.org/1999/xlink" x="0px" y="0px"
	 width="432px" height="432px" viewBox="0 0 432 432" enable-background="new 0 0 432 432" xml:space="preserve">
<path fill-rule="evenodd" clip-rule="evenodd" fill="#959595" d="M227.049,242.492c-5.012-0.163-8.12,1.577-12.362,2.182
	c-1.43-7.441-1.95-19.178-7.271-20.359c1.112-3.768-2.364-6.877-2.909-10.181c-0.22-1.33,0.723-3.211,0.728-4.362
	c0.004-1.021-0.469-3.541-0.728-4.363c-0.417-1.323-1.725-2.397-2.182-3.635c-0.31-0.838,0.18-2.029,0-2.909
	c-0.421-2.071-1.718-3.924-1.454-5.818c9.388-2.731,18.736-5.501,29.086-7.271c1.001,2.201-0.346,2.598,0,5.817
	c0.631,2.289,1.511,2.527,1.454,4.363c-0.112,3.643-4.577,5.342-5.816,7.999c2.781,6.366-1.437,12.97-1.455,18.905
	c-0.008,2.731,2.131,7.572,2.182,11.635C226.357,237.33,225.083,239.644,227.049,242.492z"/>
</svg>
