<?xml version="1.0" encoding="utf-8"?>
<!-- Generator: Adobe Illustrator 15.0.0, SVG Export Plug-In . SVG Version: 6.00 Build 0)  -->
<!DOCTYPE svg PUBLIC "-//W3C//DTD SVG 1.1//EN" "http://www.w3.org/Graphics/SVG/1.1/DTD/svg11.dtd">
<svg version="1.1" id="Layer_1" xmlns="http://www.w3.org/2000/svg" xmlns:xlink="http://www.w3.org/1999/xlink" x="0px" y="0px"
	 width="432px" height="432px" viewBox="0 0 432 432" enable-background="new 0 0 432 432" xml:space="preserve">
<path fill-rule="evenodd" clip-rule="evenodd" fill="#959595" d="M149.53,255.008c-0.969,0.33-2.017,0.598-2.909,1.091l2.545-0.364
	c3.081,0.451,5.023-0.502,6.545-0.727c7.885-1.166,18.976-2.139,23.27-4.363c-0.277,0.145-0.922-0.645,0-0.727
	c-0.046,0.004,1.273,1.367,2.182,1.454c2.749,0.263,7.485-0.364,10.18-0.728c10.886-1.464,20.834-4.486,31.267-5.816
	c3.164-0.404,4.098-1.137,5.817-1.455c5.136-0.949,8.277-0.672,12.361-1.453c9.035-1.73,18.674-4.314,26.178-5.818
	c2.217-0.443,4.92-0.156,6.545-0.727c0.467-0.164,0.646-1.273,1.454-1.455c-0.112,0.025,0.783,0.785,1.454,0.728
	c1.259-0.108,2.253-1.107,3.636-1.454c2.237-0.561,2.979-0.04,4.363-1.454c-0.227,0.231-0.957-0.281-0.728-0.728
	c0.287-0.557,1.222,0.184,1.454-0.727c0.146-0.571-0.648-2.5-0.727-2.909c0.09,0.476-0.705,0.9-0.728,0.728
	c-0.186-1.445,1.449-1.694,0-2.909c-2.653-0.646-3.872,1.284-5.09,0c-0.13,3.003,2.456,2.161,2.908,2.909
	c-1.543,1.457-3.239-1.033-5.09-1.455c-1.144,0.554-1.087,2.307-2.908,2.182c-0.605-2.334-0.62-1.508,0.728-2.908
	c-2.248-1.774-3.901,1.379-5.091-1.455c0.729,0.004,0.865-0.588,1.454-0.727c-1.757,1.834,1.136,1.287,1.455,0.727
	c-1.065-0.632-2.306-1.088-2.182-2.908c-1.984-0.049-4.358,0.066-5.817,0c0.667,0.03-1.939-0.283-1.455,0
	c-0.139-0.082,0.141-1.422,0-1.454c-1.529-0.347-3.202,0.891-5.089-0.728c2.203-1.047,6.218-1.746,7.271,0
	c0.114-0.855-0.124-2.063,0.728-2.182c0.752,1.289,2.182,3.031,4.363,2.667l2.545,1.696c1.538,1.335,2.475,2.506,4.727,1.455
	c1.13-2.923-2.061-3.394-3.636-3.272l-2.061-1.212l-1.575-0.606c-1.364-2.271-4.453-2.818-5.817-5.09
	c1.483,1.46,1.426-0.321,2.908-0.727c0.71,2.838,2.664,2.161,3.636,2.908c-0.377-0.291-0.793,0.343-0.727,0.727
	c0.296,1.729,2.708-1.262,2.908,1.454c1.461-1.482-0.321-1.425-0.727-2.908c0.729,0.003,0.865-0.589,1.454-0.727l-0.728-1.454
	c-0.04-0.93-0.933-1.007-0.727-2.182c-0.97,0-1.939,0-2.909,0c-0.302-2.526-2.216-2.012-3.636-2.909
	c-1.83-1.156-3.854-4.216-5.091-5.09c0.338,0.239-1.342,0.771,0-0.727c-3.125-0.344-0.93,1.957-2.18,2.182
	c-1.461-1.483,0.321-1.426,0.727-2.909c-1.295-0.402-3.02-0.374-3.636-1.455c0.955-0.933,2.681-0.933,3.636,0l0.848-0.364h0.605
	c0.226,1.715,2.526,1.353,2.182,3.636c2.493-1.699,1.702,0.947,2.909,0.727c2.271-0.415,1.017,1.645,4.363,3.636
	c-1.031-0.613,2.573,0.598,2.908,0.727c0.313-2.979-0.674-4.659-1.454-6.544c-4.395,1.088-4.723-6.479-10.301-3.514l-1.333,0.484
	c-0.226-1.714-2.525-0.868-2.182-3.151c-2.716,0.94-5.681,3.56-7.272,0c1.382-1.769,0.497-5.805,1.455-7.999
	c1.482,1.461,1.425-0.321,2.908-0.727c0.017-1.713-1.252-2.141-0.727-4.363c-2.157-1.857-3.588,1.203-4.363,0
	c0.815-0.153,1.132-0.807,1.454-1.454c-2.706-0.434-6.705-0.122-7.271-4.363c-0.283,1.116-0.872,0.107,0-0.727
	c-3.693,1.273-0.014-0.484-2.909-0.727c-1.442,1.223-1.159,4.173-2.907,5.09c-0.021-1.865-1.911-0.902-2.909-1.454
	c0.286,0.158,1.118-0.461,0.728-0.727c-0.834-0.567-4.116-1.275-6.545-2.909c-1.267,1.916,0.097,4.697-0.728,7.271
	c-0.051,0.161-1.322,0.51-1.454,0.728c-0.513,0.847-0.446,3.269-0.728,3.635c-0.606,0.795-2.307,0.692-2.908,1.455
	c-1.423,1.804-0.834,5.115-4.362,3.636c0.091,2.012,1.387,2.497-0.728,1.454c0.403,4.282-0.827,6.93-2.908,8.726
	c-3.591,0.682-4.933-0.886-6.545-2.182c-0.231,1.686,0.118,2.792,0.728,3.636c-3.522,0.044-2.871,7.877-2.909,7.999
	c-0.052,0.163-1.369-0.162-1.454,0c-0.38,0.726,0.204,2.104,0,2.908c-0.305,1.208-1.211,2.265-1.454,2.909
	c0.61-1.61-1.376,1.272-1.455,1.454c-0.332,0.775-0.744,1.126-0.727,2.182c0.044,2.732,1.324,2.145,1.454,3.636
	c0.004,0.043-1.401-0.074-1.454,0c-0.632,0.896,0.641,2.615,1.454,3.636c-1.649-1.729-3.435,0.697-5.09,1.454
	c-0.601,0.275-1.582-0.277-2.181,0c-1.413,0.654-1.999,3.612-4.363,2.182c-0.979,3.361-2.981,3.127-4.363,3.636
	c-2.04,0.751-3.754,0.956-5.816,0c-0.165,2.019-2.307,2.058-2.909,3.636c-0.786-1.463-2.382-0.656-3.636-0.727
	c-2.052-0.117-0.182-0.867-0.728-1.455c0.153,0.166-4.253-0.949-4.363-3.635c-3.195-0.289-1.897,3.918-4.362,4.362l-1.455,1.454
	c-2.468,0.924-3.389,3.396-5.816,4.363c-0.031,1,0.342,1.596,0.728,2.182c-4.268,0.538-2.789,5.707-5.091,6.544
	c-0.002-0.729,0.589-0.865,0.728-1.454c-2.792,0.359-2.563,3.739-5.091,4.362L149.53,255.008l-0.364-0.728"/>
</svg>
