<?xml version="1.0" encoding="utf-8"?>
<!-- Generator: Adobe Illustrator 15.0.0, SVG Export Plug-In . SVG Version: 6.00 Build 0)  -->
<!DOCTYPE svg PUBLIC "-//W3C//DTD SVG 1.1//EN" "http://www.w3.org/Graphics/SVG/1.1/DTD/svg11.dtd">
<svg version="1.1" id="Layer_1" xmlns="http://www.w3.org/2000/svg" xmlns:xlink="http://www.w3.org/1999/xlink" x="0px" y="0px"
	 width="432px" height="432px" viewBox="0 0 432 432" enable-background="new 0 0 432 432" xml:space="preserve">
<path fill-rule="evenodd" clip-rule="evenodd" fill="#959595" d="M230.329,224.655c-0.707-0.02-0.564-0.89-0.728-1.454
	c-2.645,6.052,5.79,7.291,7.999,10.907c-2.024,0.546-8.972-0.221-9.453-3.636c-0.852,0.117-0.613,1.326-0.728,2.182
	c-1.822-0.602-2.299-2.547-3.635-3.636c-1.916-0.22-2.387,1.007-2.182,2.909c-3.838-3.602,2.646-8.151,2.182-13.09
	c-0.805-2.583-2.935-0.441-4.363-0.727c-1.549-0.31-2.105-1.721-3.636-2.182c-1.171-0.353-2.633,1.073-3.636,0
	c0.51-3.66-1.508-4.793-5.09-4.363c-1.029-2.122-2.969-2.485-3.15-5.454c-0.849-0.606-3.15-0.97-4.363-1.091
	c-1.212-0.121-2.908-0.727-3.394,0.242c-0.485,0.97-2.303,0.728-2.909,1.455c-0.605,0.727-1.817,3.272-2.908,3.03
	s-3.029-1.575-3.515-1.454c-0.484,0.121-0.727,0.363-1.211,1.454c-0.485,1.091-1.576,2.908-2.909,3.03s-2.06,0.485-2.424,1.333
	c-0.363,0.849-0.969,2.424-1.817,3.152c-0.849,0.727-2.183,1.09-2.788,2.787l-1.939-11.15l32.601-6.06
	c4.476-0.887,11.927-2.452,17.452-3.636c3.769-0.807,10.457-2.978,15.997-3.636c-0.601,2.056,1.024,1.884,0.728,3.636l0.12,0.485
	c2.546,8.241,4.292,17.887,7.15,25.693c3.347-0.791,9.005-3.643,11.636-0.728c-1.41,2.712-3.038,5.204-3.637,8.726
	c-3.266,0.371-4.492,2.78-7.999,2.909c0.379-1.076,1.076-1.833,1.455-2.909c-0.197-0.662-3.22-1.931-2.909-0.727
	c-2.162,0.314,0.748-1.767,0.728-2.182c-0.038-0.822-2.683-1.62-1.454-3.636c-1.327-0.38-0.922,1.853-1.454,2.182
	c-0.292,0.181-1.94-2.909-2.182,0.728c-1.285-0.654-2.123-1.756-3.636-2.182c-0.528-2.225,1.254-2.139,0.728-4.363
	c2.282,0.808,1.921,0.341,3.636-0.727c0.122-1.577-2.58-0.33-3.636-0.728c0.129-2.169-2.795-4.45,0-5.09
	c-0.109-1.345-2.463-0.446-2.909-1.454c-0.459-1.078,1.629-2.49,0.728-4.363c-0.333-0.69-1.543-0.884-1.454,0
	c-0.452-4.49-0.631-5.794,5.09-7.271c-2.281-0.986-2.739-1.464-1.334-3.636l-0.12-0.728c-1.131-1.198-2.833,0.249-4.363,0.728
	c-0.298,1.751,1.328,1.581,0.728,3.636c-1.237,0.268-1.373-0.567-1.455-1.454c-2.155,1.37-1.152,3.133-3.636,2.908
	c-0.065,1.984,1.211,1.464,0,2.909c-0.585-0.385-1.18-0.758-2.182-0.727c0.813,0.895,0.634,1.494-0.728,1.454
	c-0.339,2.279,1.83,2.05,2.909,2.909c-1.276,4.289,1.091,8.343,1.454,13.088"/>
</svg>
