<?xml version="1.0" encoding="utf-8"?>
<!-- Generator: Adobe Illustrator 15.0.0, SVG Export Plug-In . SVG Version: 6.00 Build 0)  -->
<!DOCTYPE svg PUBLIC "-//W3C//DTD SVG 1.1//EN" "http://www.w3.org/Graphics/SVG/1.1/DTD/svg11.dtd">
<svg version="1.1" id="Layer_1" xmlns="http://www.w3.org/2000/svg" xmlns:xlink="http://www.w3.org/1999/xlink" x="0px" y="0px"
	 width="432px" height="432px" viewBox="0 0 432 432" enable-background="new 0 0 432 432" xml:space="preserve">
<path fill-rule="evenodd" clip-rule="evenodd" fill="#959595" d="M157.012,226.236c0.487-2.715-2.015-4.267,1.454-4.363
	c-0.473-0.739-1.672-0.752-1.454-2.182c1.984-0.065,1.463,1.211,2.908,0c1.471-2.331-2.877-2.273-0.727-2.908
	c-0.074-1.401-2.709,1.129-3.635-0.727c-0.167-3.318,3.998-2.304,5.817-3.636c-2.197-0.711-2.952-2.865-5.09-3.635
	c1.236-3.146-0.61-6.688,0-10.907c0.25-1.727,1.099-5.755,0-8.726c-0.336-0.909-1.27-1.169-1.455-2.182
	c-0.312-1.708-0.185-4.293,0-5.817c0.007-0.057,1.272,0.952,1.455,0.727c0,0-0.825-1.59-0.727-2.181
	c0.186-1.135,3.559-2.592,0.727-2.182c0.209-1.982,1.222,0.578,2.181,1.454c1.85,1.69,3.482,1.572,2.181,4.363
	c0.74-0.473,0.752-1.672,2.182-1.455c0.201,3.023,3.293,2.382,6.544,3.636c0.342,0.132,0.458,1.337,0.727,1.454
	c1.031,0.451,3.189,0.086,4.363,0.728c0.998,0.546,1.843,2.381,4.362,0.727c-0.952,3.224,4.162,2.297,2.182,4.363
	c0.97,0,1.939,0,2.909,0c0,1.454,0,2.908,0,4.362c-3.014-1.552-2.73,1.509-4.363,0c-1.875,0.175,0.999,1.251,0,2.909
	c-0.976,0.677-6.087,3.535-6.544,5.09c-0.366,1.246,2.782,1.859,0.728,2.909c1.43-0.993,4.153-0.694,5.817-1.455
	c-2.082,1.554-3.101,4.17-6.544,4.363c1.474,0.95,0.999,3.849,2.909,4.363c0.679-0.533,1.102-1.322,1.454-2.182
	c0.039,1.089,1.766,1.301,0.727,2.909c2.472-1.054,2.74-3.25,4.363-4.363c0.631-0.433,0.707,0.73,0.727,0.727
	c1.354-0.194,2.827-2.387,4.363-2.908c-0.591-1.4,0.69-3.008,0.727-4.363c0.018-0.662-0.618-2.563-0.727-2.181
	c0.27-0.945,1.058-0.13,1.454-0.728c0.449-0.678-0.433-2.219,0-2.909c0.616-0.98,2.643-1.301,2.909-2.909
	c1.267,0.657,2.801,1.626,1.454,2.909c2.659-1.382-1.561-3.479-2.182-6.544c-0.429-2.12,2.002-4.836-0.727-6.545
	c1.089-1.942,2.675-5.623,2.182-8.726c-0.157-0.983-1.157-0.149-1.455-0.727c-0.156-0.304,1.063-2.244,0-0.728
	c-1.234-0.472-0.454-1.671,0.728-1.454c0.037-1.377-1.73-0.129-1.455,0c-1.811-0.851,0.807-3.015-0.727-1.454
	c-1.19-3.363,1.867-0.843,2.909-0.727c2.208,0.245,6.137,0.744,8.726,1.454c2.612,0.718,5.133,2.31,7.271,2.909
	c1.123,0.314,2.49-0.233,3.636,0c2.326,0.473,4.265,2.522,5.817,2.909c0.404,0.1,1.771-0.885,2.909-0.728
	c1.65,0.229,3.409,1.739,5.09,2.182c1.135,0.299,2.49-0.267,3.635,0c1.567,0.366,3.502,1.907,5.09,2.182
	c4.434,0.766,8.236,1.933,12.362,2.908c4.434,1.048,8.701,1.205,13.089,2.182c0.881,0.196,2.154,1.284,2.908,1.455
	c5.301,1.196,10.564,1.054,15.271,2.909c-1.334,2.466-0.776,4.183-1.454,7.999c0.019-0.106-0.521,2.51-0.728,2.909
	c-0.095,0.182-1.433,0.627-1.454,0.727c-0.09,0.425,0.846,1.766,0.727,2.909c-0.406,3.901-2.259,7.044-2.908,12.361
	c-1.054,8.629-4.399,17.872-5.817,25.451c-0.382,2.041,0.041,3.672-0.728,5.816c-0.211,0.59-1.462,2.305-1.453,2.182
	c-0.053,0.771,1.236,1.355,1.453,2.182c0.716,2.723-0.761,4.05,0,5.817c-5.365,0.89-10.634-1.757-15.996-2.909
	c-3.182-0.683-7.313-0.436-10.181-1.454c-0.24-0.085-0.579-1.419-0.728-1.454c-0.354-0.084-1.34,0.77-2.182,0.727
	c-1.342-0.067-3.083-1.32-4.362-1.453c-2.423-0.254-2.804,0.389-5.091,0c-1.149-0.196-5.936-0.703-5.816-0.729
	c-0.46,0.098-0.734,1.455-0.727,1.455c-1.188,0.053-2.682-0.795-4.364-0.727c-1.475,0.059-8.141,1.788-9.453,1.453
	c-0.512-0.131-0.783-2.07-2.181-1.453c1.211-1.445-0.065-0.926,0-2.909c-0.915,0.18-0.733,1.446,0,1.454
	c-0.065,1.454-1.595,0.029-1.454,0c-0.628,0.133-1.213,1.416-1.455,1.455c-2.139,0.346-4.34-0.246-7.271,0
	c0.529-1.984-1.446-1.464-1.455-2.909c-4.22,0.138-5.958-2.283-9.453-2.181c-0.798,0.022-1.709,1.32-2.181,1.453
	c-1.083,0.307-1.087-0.711-1.455-0.727c-1.93-0.083-2.864,1.57-3.636,1.454c-1.608-0.243-4.041-3.181-6.544-3.636
	c-0.284-4.496,0.966-7.267,0-10.907c-0.104-0.394-0.22-1.926,0-1.454c-0.514-1.101-0.566,0.082-0.727,0
	c-3.087-1.586-1.315-4.818-5.817-2.909c1.35-1.485-0.348-0.981,0-0.728c-0.659-0.482-0.821-2.496-2.182-2.908
	c-0.5-0.15-1.773,0.305-2.182,0c-0.525-0.392-0.384-2.263-2.181-1.454"/>
</svg>
