<?xml version="1.0" encoding="utf-8"?>
<!-- Generator: Adobe Illustrator 15.0.0, SVG Export Plug-In . SVG Version: 6.00 Build 0)  -->
<!DOCTYPE svg PUBLIC "-//W3C//DTD SVG 1.1//EN" "http://www.w3.org/Graphics/SVG/1.1/DTD/svg11.dtd">
<svg version="1.1" id="Layer_1" xmlns="http://www.w3.org/2000/svg" xmlns:xlink="http://www.w3.org/1999/xlink" x="0px" y="0px"
	 width="432px" height="432px" viewBox="0 0 432 432" enable-background="new 0 0 432 432" xml:space="preserve">
<path fill-rule="evenodd" clip-rule="evenodd" fill="#959595" d="M228.521,202.565c2.893-0.743,3.593-3.678,5.09-5.817
	c2.257,0.052,4.514-0.975,5.091-4.362c1.384,0.312,1.826,1.566,3.635,1.454c2.068-0.125,2.442-2.619,3.636-3.636
	c1.038-0.884,3.247,0.022,2.909-2.182c1.363,1.277,4.41,0.492,5.817,1.454c0.236,0.162-0.21,1.245,0,1.455
	c0.198,0.199,1.312-0.229,1.454,0c0.445,0.72,0.435,1.711,0.728,2.182c0.887,1.428,1.336,2.254,0.727,5.09
	c-4.138-0.167-6.91-4.958-10.181-3.636c-1.833,2.386-0.819,5.564-1.454,7.999c-0.101,0.387-1.372,1.182-1.454,1.455
	c-0.17,0.564,0.301,1.684,0,2.182c-0.755,1.246-4.555,0.353-3.636,4.363c-7.09-1.031-3.542,8.577-7.271,10.907
	c-3.209,0.403-3.831-4.364-6.545-2.182c-1.641,1.62-0.263,3.284-0.727,5.091c-0.413,1.605-2.339,3.517-2.909,5.09
	c-0.389,1.074,0.364,2.551,0,3.635c-0.92,2.742-3.68,4.323-4.362,7.999c-0.364,1.96,1.002,4.38,0,6.544
	c-4.022-0.143-4.619,3.139-8.726,2.909c-0.977,0.478-1.354,1.554-1.455,2.909c-2.738-0.279-5.5,3.176-7.998,0.727
	c-1.646,1.021-2.39,2.942-4.363,3.636c-3.451-1.153-6.902-2.309-7.271-6.544c-5.244-0.035-7.038-3.107-10.18-7.271
	c-1.622-2.15-4.095-4.861-4.363-5.818c-0.495-1.766,1.245-4.222,0-5.816c4.979,1.102,2.886-4.87,6.545-5.09
	c-1.6-2.699-0.611-8.098,0.727-10.181c2.279-0.34,2.051,1.828,2.908,2.909c3.422-2.266,0.858-6.37,2.182-9.453
	c0.721-1.679,4.599-1.41,2.909-4.363c1.151,0.06,2.773-0.35,2.908,0.727c1.782-0.872,2.862-2.657,4.363-4.363
	c1.026-1.167,3.059-2.807,3.636-4.363c0.375-1.013,0.342-2.919,0.484-3.999c0.209-1.579-0.22-5.114,0.243-6.787
	c2.544-9.21-0.606-12.604,0.605-13.573c0.97,4.363,2.843,18.002,3.757,21.451c6.705-0.566,12.134-2.409,18.905-2.908
	c0.947,3.901,1.419,8.276,2.182,12.361c0.648-0.322,1.301-0.638,1.455-1.454V202.565z"/>
</svg>
