<?xml version="1.0" encoding="utf-8"?>
<!-- Generator: Adobe Illustrator 15.0.0, SVG Export Plug-In . SVG Version: 6.00 Build 0)  -->
<!DOCTYPE svg PUBLIC "-//W3C//DTD SVG 1.1//EN" "http://www.w3.org/Graphics/SVG/1.1/DTD/svg11.dtd">
<svg version="1.1" id="Layer_1" xmlns="http://www.w3.org/2000/svg" xmlns:xlink="http://www.w3.org/1999/xlink" x="0px" y="0px"
	 width="432px" height="432px" viewBox="0 0 432 432" enable-background="new 0 0 432 432" xml:space="preserve">
<path fill-rule="evenodd" clip-rule="evenodd" fill="#959595" d="M252.821,187.77c1.064,3.228-0.006,4.268,0,7.999
	c0.226,0.987,1.821,0.604,2.909,0.727c-0.996,4.147,1.906,4.395,1.454,7.999c-0.647,0.565-1.643,0.782-2.909,0.728
	c0.142,4.521-4.088,6.838-2.182,10.907c1.798,0.746,2.133-0.76,2.909-1.455c2.063-1.849,2.808-5.217,5.816-7.271
	c4.695,1.693,0.397,5.384,0,8.726c-0.397,3.35-0.618,5.32,0.728,7.998c-2.021,0.402-2.036,2.813-2.908,4.363
	c-0.826,2.314,0.796,4.613,0.727,6.545c-0.092,2.582-1.906,5.531-2.181,8.725c-0.171,1.977,0.51,5.166,0.728,6.545
	c0.121,0.771-0.724,1.475-0.728,1.454c0.186,0.858,1.042,2.071,1.454,2.909c1.179,2.396,1.877,4.876,1.454,10.18
	c-16.544,0.422-31.15,2.783-47.992,2.909c-2.348,0.65-1.021-2.372-2.182-2.909c-2.604-0.061-4.201-1.131-6.544-1.454
	c-0.088-4.065-4.258-9.192-0.728-12.362c-0.257-2.011-2.216-2.085-2.908-3.635c-1.213-2.717-0.351-6.824-1.454-9.453
	c-0.902-2.148-2.128-4.051-3.636-5.09c-0.843-0.582-3.109-0.438-4.363-1.455c-2.253-1.828-3.376-5.326-5.817-7.271
	c-0.43-0.342-2.469-0.678-3.635-1.454c-0.791-0.525-1.636-1.917-2.182-2.182c-1.322-0.638-3.206-0.023-4.363-0.728
	c-1.527-0.928-1.281-3.295-3.636-2.908c1.784-5.058-1.293-11.833,2.182-15.998c-0.845-2.306-2.022-4.28-4.363-5.09
	c-1.067-1.622,0.749-1.362,1.454-2.909c0.404-0.887,0.249-3.049,0.728-3.636c0.271-0.333,1.808-0.495,2.182-0.727
	c1.207-0.75,3.231-2.702,5.09-3.636c0.506-5.596-0.727-9.453-0.727-14.543c1.586,0.132,2.313-0.595,2.181-2.182
	c6.281,4.518,14.89-4.161,21.088-5.817c1.395,2.106-1.601,4.85-1.454,7.999c6.721-1.486,12.828,1.586,15.27,6.544
	c4.319,0.536,7.436,0.723,11.634,1.454c0.969,0.169,2.853,0.491,3.637,0.727c2.001,0.603,3.774,2.479,5.817,2.909
	c3.223,0.678,7.083-0.265,10.906,0.727c0.31,1.387,2.078,1.316,1.455,3.636C249.985,186.242,251.205,187.205,252.821,187.77z"/>
</svg>
